<svg width="50" height="25" viewBox="0 0 50 25" fill="none" xmlns="http://www.w3.org/2000/svg">
<path d="M11.598 24.28C10.078 24.28 8.63797 24.0667 7.27797 23.64C5.91797 23.24 4.70464 22.64 3.63797 21.84C2.59797 21.04 1.7713 20.0667 1.15797 18.92C0.571302 17.8 0.277969 16.5067 0.277969 15.04C0.277969 14.4 0.331302 13.72 0.437969 13C0.571302 12.2533 0.757969 11.4667 0.997969 10.64C1.26464 9.78667 1.58464 8.89333 1.95797 7.96L4.83797 9.08C4.5713 9.82667 4.3313 10.5333 4.11797 11.2C3.9313 11.8667 3.78464 12.4933 3.67797 13.08C3.59797 13.6667 3.55797 14.2267 3.55797 14.76C3.55797 16.12 3.91797 17.2667 4.63797 18.2C5.38464 19.1333 6.3713 19.8267 7.59797 20.28C8.8513 20.76 10.2246 21 11.718 21C13.5313 21 15.0513 20.7733 16.278 20.32C17.5046 19.8667 18.478 19.2533 19.198 18.48C19.918 17.7333 20.4246 16.88 20.718 15.92C21.038 14.9867 21.198 14.0267 21.198 13.04C21.198 11.7333 20.998 10.3867 20.598 9C20.2246 7.58667 19.8113 6.09333 19.358 4.52L22.598 3.64C22.8913 4.65333 23.1046 5.48 23.238 6.12C23.398 6.73333 23.518 7.24 23.598 7.64C23.7046 8.01333 23.8113 8.33333 23.918 8.6C24.2113 9.29333 24.6246 9.88 25.158 10.36C25.718 10.8133 26.438 11.1867 27.318 11.48C28.2246 11.7467 29.3313 11.9467 30.638 12.08C31.9446 12.1867 33.4913 12.24 35.278 12.24C36.6913 12.24 37.9713 12.1733 39.118 12.04C40.2913 11.9067 41.3313 11.7067 42.238 11.44C43.1446 11.1467 43.9046 10.8 44.518 10.4C45.158 9.97333 45.638 9.49333 45.958 8.96C46.278 8.4 46.438 7.78667 46.438 7.12C46.438 6.53333 46.2913 5.96 45.998 5.4C45.7046 4.81333 45.2513 4.32 44.638 3.92C44.0246 3.52 43.2113 3.32 42.198 3.32C40.918 3.32 39.638 3.65333 38.358 4.32C37.1046 4.98667 35.9046 5.82667 34.758 6.84C33.638 7.82667 32.638 8.84 31.758 9.88C30.878 10.92 30.1713 11.8267 29.638 12.6L26.158 12.48C26.8246 11.3867 27.6113 10.2533 28.518 9.08C29.4246 7.90667 30.4113 6.78667 31.478 5.72C32.5446 4.65333 33.678 3.69333 34.878 2.84C36.078 1.98667 37.3046 1.30667 38.558 0.799999C39.838 0.293333 41.1313 0.0399995 42.438 0.0399995C43.9046 0.0399995 45.158 0.346666 46.198 0.96C47.2646 1.54667 48.078 2.34667 48.638 3.36C49.2246 4.37333 49.518 5.52 49.518 6.8C49.518 7.97333 49.2646 9.09333 48.758 10.16C48.2513 11.2 47.4246 12.12 46.278 12.92C45.1313 13.72 43.598 14.36 41.678 14.84C39.758 15.2933 37.3846 15.52 34.558 15.52C32.5313 15.52 30.798 15.3867 29.358 15.12C27.9446 14.88 26.7713 14.56 25.838 14.16C24.9313 13.7333 24.238 13.28 23.758 12.8C23.3046 12.2933 23.0246 11.8 22.918 11.32L24.558 13.36C24.4246 14.64 24.1313 15.92 23.678 17.2C23.2513 18.48 22.558 19.6533 21.598 20.72C20.6646 21.8133 19.3846 22.68 17.758 23.32C16.1313 23.96 14.078 24.28 11.598 24.28Z" fill="white"/>
</svg>
