<svg width="37" height="26" viewBox="0 0 37 26" fill="none" xmlns="http://www.w3.org/2000/svg">
<path d="M14.7367 17.84L15.7767 14.56C18.8967 14.56 21.5767 14.48 23.8167 14.32C26.0834 14.16 27.9367 13.9067 29.3767 13.56C30.8434 13.1867 31.9234 12.6933 32.6167 12.08C33.3367 11.44 33.6967 10.6667 33.6967 9.76C33.6967 8.74667 33.5101 7.57333 33.1367 6.24C32.7634 4.90667 32.2834 3.48 31.6967 1.96L34.7767 0.879999C35.1234 1.73333 35.4434 2.65333 35.7367 3.64C36.0567 4.6 36.3234 5.56 36.5367 6.52C36.7501 7.45333 36.8567 8.32 36.8567 9.12C36.8567 10.6933 36.4967 12.04 35.7767 13.16C35.0567 14.2533 33.8567 15.1467 32.1767 15.84C30.4967 16.5333 28.2301 17.04 25.3767 17.36C22.5501 17.68 19.0034 17.84 14.7367 17.84ZM14.7367 17.84C12.3634 17.84 10.2701 17.68 8.45672 17.36C6.67005 17.0667 5.17672 16.6 3.97672 15.96C2.77672 15.32 1.87005 14.4933 1.25672 13.48C0.643385 12.44 0.336719 11.1867 0.336719 9.72C0.336719 9.05333 0.390052 8.37333 0.496719 7.68C0.603386 6.96 0.736719 6.24 0.896719 5.52C1.08339 4.8 1.27005 4.10667 1.45672 3.44L4.45672 4.2C4.35005 4.6 4.23005 5.08 4.09672 5.64C3.96339 6.17333 3.84339 6.72 3.73672 7.28C3.65672 7.84 3.61672 8.34667 3.61672 8.8C3.61672 10.1867 3.96339 11.3067 4.65672 12.16C5.37672 12.9867 6.61672 13.6 8.37672 14C10.1367 14.3733 12.6034 14.56 15.7767 14.56L16.5767 16.56L14.7367 17.84ZM18.5767 25.44C18.0167 25.44 17.5367 25.24 17.1367 24.84C16.7634 24.4667 16.5767 24.0133 16.5767 23.48C16.5767 22.9467 16.7634 22.48 17.1367 22.08C17.5367 21.68 18.0167 21.48 18.5767 21.48C19.1101 21.48 19.5634 21.68 19.9367 22.08C20.3367 22.48 20.5367 22.9467 20.5367 23.48C20.5367 24.0133 20.3367 24.4667 19.9367 24.84C19.5634 25.24 19.1101 25.44 18.5767 25.44Z" fill="white"/>
</svg>
