<svg width="37" height="21" viewBox="0 0 37 21" fill="none" xmlns="http://www.w3.org/2000/svg">
<path d="M14.7367 20.84L15.7767 17.56C18.8967 17.56 21.5767 17.48 23.8167 17.32C26.0834 17.16 27.9367 16.9067 29.3767 16.56C30.8434 16.1867 31.9234 15.6933 32.6167 15.08C33.3367 14.44 33.6967 13.6667 33.6967 12.76C33.6967 11.7467 33.5101 10.5733 33.1367 9.24C32.7634 7.90667 32.2834 6.48 31.6967 4.96L34.7767 3.88C35.1234 4.73333 35.4434 5.65333 35.7367 6.64C36.0567 7.6 36.3234 8.56 36.5367 9.52C36.7501 10.4533 36.8567 11.32 36.8567 12.12C36.8567 13.6933 36.4967 15.04 35.7767 16.16C35.0567 17.2533 33.8567 18.1467 32.1767 18.84C30.4967 19.5333 28.2301 20.04 25.3767 20.36C22.5501 20.68 19.0034 20.84 14.7367 20.84ZM14.7367 20.84C12.3634 20.84 10.2701 20.68 8.45672 20.36C6.67005 20.0667 5.17672 19.6 3.97672 18.96C2.77672 18.32 1.87005 17.4933 1.25672 16.48C0.643385 15.44 0.336719 14.1867 0.336719 12.72C0.336719 12.0533 0.390052 11.3733 0.496719 10.68C0.603386 9.96 0.736719 9.24 0.896719 8.52C1.08339 7.8 1.27005 7.10667 1.45672 6.44L4.45672 7.2C4.35005 7.6 4.23005 8.08 4.09672 8.64C3.96339 9.17333 3.84339 9.72 3.73672 10.28C3.65672 10.84 3.61672 11.3467 3.61672 11.8C3.61672 13.1867 3.96339 14.3067 4.65672 15.16C5.37672 15.9867 6.61672 16.6 8.37672 17C10.1367 17.3733 12.6034 17.56 15.7767 17.56L16.5767 19.56L14.7367 20.84ZM21.4167 3.96C20.8567 3.96 20.3767 3.77333 19.9767 3.4C19.6034 3 19.4167 2.53333 19.4167 2C19.4167 1.46667 19.6034 0.999999 19.9767 0.599999C20.3767 0.2 20.8567 0 21.4167 0C21.9501 0 22.4034 0.2 22.7767 0.599999C23.1767 0.999999 23.3767 1.46667 23.3767 2C23.3767 2.53333 23.1767 3 22.7767 3.4C22.4034 3.77333 21.9501 3.96 21.4167 3.96ZM15.9367 3.96C15.3767 3.96 14.8967 3.77333 14.4967 3.4C14.1234 3 13.9367 2.53333 13.9367 2C13.9367 1.46667 14.1234 0.999999 14.4967 0.599999C14.8967 0.2 15.3767 0 15.9367 0C16.4701 0 16.9234 0.2 17.2967 0.599999C17.6967 0.999999 17.8967 1.46667 17.8967 2C17.8967 2.53333 17.6967 3 17.2967 3.4C16.9234 3.77333 16.4701 3.96 15.9367 3.96Z" fill="#236681"/>
</svg>
