<svg width="16" height="10" viewBox="0 0 16 10" fill="none" xmlns="http://www.w3.org/2000/svg">
<path d="M6.18811 9.357L6.63011 7.963C7.95611 7.963 9.09511 7.929 10.0471 7.861C11.0104 7.793 11.7981 7.68533 12.4101 7.538C13.0334 7.37933 13.4924 7.16967 13.7871 6.909C14.0931 6.637 14.2461 6.30833 14.2461 5.923C14.2461 5.49233 14.1668 4.99367 14.0081 4.427C13.8494 3.86033 13.6454 3.254 13.3961 2.608L14.7051 2.149C14.8524 2.51167 14.9884 2.90267 15.1131 3.322C15.2491 3.73 15.3624 4.138 15.4531 4.546C15.5438 4.94267 15.5891 5.311 15.5891 5.651C15.5891 6.31967 15.4361 6.892 15.1301 7.368C14.8241 7.83267 14.3141 8.21233 13.6001 8.507C12.8861 8.80167 11.9228 9.017 10.7101 9.153C9.50877 9.289 8.00144 9.357 6.18811 9.357ZM6.18811 9.357C5.17944 9.357 4.28977 9.289 3.51911 9.153C2.75977 9.02833 2.12511 8.83 1.61511 8.558C1.10511 8.286 0.719772 7.93467 0.459106 7.504C0.198439 7.062 0.0681055 6.52933 0.0681055 5.906C0.0681055 5.62267 0.0907722 5.33367 0.136106 5.039C0.181439 4.733 0.238106 4.427 0.306106 4.121C0.385439 3.815 0.464772 3.52033 0.544106 3.237L1.81911 3.56C1.77377 3.73 1.72277 3.934 1.66611 4.172C1.60944 4.39867 1.55844 4.631 1.51311 4.869C1.47911 5.107 1.46211 5.32233 1.46211 5.515C1.46211 6.10433 1.60944 6.58033 1.90411 6.943C2.21011 7.29433 2.73711 7.555 3.48511 7.725C4.23311 7.88367 5.28144 7.963 6.63011 7.963L6.97011 8.813L6.18811 9.357ZM9.02711 2.183C8.78911 2.183 8.58511 2.10367 8.41511 1.945C8.25644 1.775 8.17711 1.57667 8.17711 1.35C8.17711 1.12333 8.25644 0.925 8.41511 0.755C8.58511 0.585 8.78911 0.5 9.02711 0.5C9.25377 0.5 9.44644 0.585 9.60511 0.755C9.77511 0.925 9.86011 1.12333 9.86011 1.35C9.86011 1.57667 9.77511 1.775 9.60511 1.945C9.44644 2.10367 9.25377 2.183 9.02711 2.183ZM6.69811 2.183C6.46011 2.183 6.25611 2.10367 6.08611 1.945C5.92744 1.775 5.84811 1.57667 5.84811 1.35C5.84811 1.12333 5.92744 0.925 6.08611 0.755C6.25611 0.585 6.46011 0.5 6.69811 0.5C6.92477 0.5 7.11744 0.585 7.27611 0.755C7.44611 0.925 7.53111 1.12333 7.53111 1.35C7.53111 1.57667 7.44611 1.775 7.27611 1.945C7.11744 2.10367 6.92477 2.183 6.69811 2.183Z" fill="white"/>
</svg>
