<svg width="37" height="26" viewBox="0 0 37 26" fill="none" xmlns="http://www.w3.org/2000/svg">
<path d="M14.7367 25.84L15.7767 22.56C18.8967 22.56 21.5767 22.48 23.8167 22.32C26.0834 22.16 27.9367 21.9067 29.3767 21.56C30.8434 21.1867 31.9234 20.6933 32.6167 20.08C33.3367 19.44 33.6967 18.6667 33.6967 17.76C33.6967 16.7467 33.5101 15.5733 33.1367 14.24C32.7634 12.9067 32.2834 11.48 31.6967 9.96L34.7767 8.88C35.1234 9.73333 35.4434 10.6533 35.7367 11.64C36.0567 12.6 36.3234 13.56 36.5367 14.52C36.7501 15.4533 36.8567 16.32 36.8567 17.12C36.8567 18.6933 36.4967 20.04 35.7767 21.16C35.0567 22.2533 33.8567 23.1467 32.1767 23.84C30.4967 24.5333 28.2301 25.04 25.3767 25.36C22.5501 25.68 19.0034 25.84 14.7367 25.84ZM14.7367 25.84C12.3634 25.84 10.2701 25.68 8.45672 25.36C6.67005 25.0667 5.17672 24.6 3.97672 23.96C2.77672 23.32 1.87005 22.4933 1.25672 21.48C0.643385 20.44 0.336719 19.1867 0.336719 17.72C0.336719 17.0533 0.390052 16.3733 0.496719 15.68C0.603386 14.96 0.736719 14.24 0.896719 13.52C1.08339 12.8 1.27005 12.1067 1.45672 11.44L4.45672 12.2C4.35005 12.6 4.23005 13.08 4.09672 13.64C3.96339 14.1733 3.84339 14.72 3.73672 15.28C3.65672 15.84 3.61672 16.3467 3.61672 16.8C3.61672 18.1867 3.96339 19.3067 4.65672 20.16C5.37672 20.9867 6.61672 21.6 8.37672 22C10.1367 22.3733 12.6034 22.56 15.7767 22.56L16.5767 24.56L14.7367 25.84ZM18.6967 4.56C18.1367 4.56 17.6567 4.37333 17.2567 4C16.8834 3.6 16.6967 3.13333 16.6967 2.6C16.6967 2.06667 16.8834 1.6 17.2567 1.2C17.6567 0.799999 18.1367 0.599999 18.6967 0.599999C19.2301 0.599999 19.6834 0.799999 20.0567 1.2C20.4567 1.6 20.6567 2.06667 20.6567 2.6C20.6567 3.13333 20.4567 3.6 20.0567 4C19.6834 4.37333 19.2301 4.56 18.6967 4.56ZM15.9767 8.96C15.4167 8.96 14.9367 8.77333 14.5367 8.4C14.1634 8 13.9767 7.53333 13.9767 7C13.9767 6.46667 14.1634 6 14.5367 5.6C14.9367 5.2 15.4167 5 15.9767 5C16.5101 5 16.9634 5.2 17.3367 5.6C17.7367 6 17.9367 6.46667 17.9367 7C17.9367 7.53333 17.7367 8 17.3367 8.4C16.9634 8.77333 16.5101 8.96 15.9767 8.96ZM21.4167 8.96C20.8567 8.96 20.3767 8.77333 19.9767 8.4C19.6034 8 19.4167 7.53333 19.4167 7C19.4167 6.46667 19.6034 6 19.9767 5.6C20.3767 5.2 20.8567 5 21.4167 5C21.9501 5 22.4034 5.2 22.7767 5.6C23.1767 6 23.3767 6.46667 23.3767 7C23.3767 7.53333 23.1767 8 22.7767 8.4C22.4034 8.77333 21.9501 8.96 21.4167 8.96Z" fill="white"/>
</svg>
