<svg width="25" height="33" viewBox="0 0 25 33" fill="none" xmlns="http://www.w3.org/2000/svg">
<path d="M14.4178 21.56C13.8578 21.56 13.3778 21.36 12.9778 20.96C12.6045 20.5867 12.4178 20.1333 12.4178 19.6C12.4178 19.0667 12.6045 18.6 12.9778 18.2C13.3778 17.8 13.8578 17.6 14.4178 17.6C14.9511 17.6 15.4045 17.8 15.7778 18.2C16.1778 18.6 16.3778 19.0667 16.3778 19.6C16.3778 20.1333 16.1778 20.5867 15.7778 20.96C15.4045 21.36 14.9511 21.56 14.4178 21.56ZM14.8178 32.76C12.9511 32.76 11.1645 32.5467 9.45781 32.12C7.77781 31.6933 6.28448 31.0267 4.97781 30.12C3.69781 29.24 2.68448 28.12 1.93781 26.76C1.19115 25.4 0.817812 23.8 0.817812 21.96C0.817812 20.4133 1.04448 18.9333 1.49781 17.52C1.95115 16.1333 2.60448 14.8267 3.45781 13.6C4.33781 12.3467 5.40448 11.2 6.65781 10.16C7.91115 9.12 9.33781 8.2 10.9378 7.4C12.5378 6.57333 14.2845 5.88 16.1778 5.32L15.7378 5.84C15.0445 5.62667 14.3378 5.4 13.6178 5.16C12.8978 4.89333 12.1511 4.65333 11.3778 4.44C10.6045 4.2 9.77781 4.01333 8.89781 3.88C8.01781 3.74667 7.07115 3.68 6.05781 3.68C5.25781 3.68 4.55115 3.74667 3.93781 3.88C3.35115 4.01333 2.79115 4.14667 2.25781 4.28L1.69781 1.32C2.39115 1.02667 3.16448 0.799999 4.01781 0.64C4.89781 0.453333 5.77781 0.36 6.65781 0.36C7.88448 0.36 8.97781 0.48 9.93781 0.72C10.8978 0.933333 11.8045 1.2 12.6578 1.52C13.5378 1.84 14.4578 2.17333 15.4178 2.52C16.3778 2.84 17.4445 3.12 18.6178 3.36C19.8178 3.57333 21.2311 3.69333 22.8578 3.72H23.2178L23.2978 7C22.0178 7 20.6578 7.14667 19.2178 7.44C17.7778 7.73333 16.3378 8.16 14.8978 8.72C13.4845 9.28 12.1245 9.97333 10.8178 10.8C9.51115 11.6267 8.35115 12.5867 7.33781 13.68C6.35115 14.7467 5.56448 15.9333 4.97781 17.24C4.39115 18.5733 4.09781 20.0133 4.09781 21.56C4.09781 22.9467 4.39115 24.1333 4.97781 25.12C5.56448 26.1333 6.36448 26.96 7.37781 27.6C8.41781 28.24 9.60448 28.7067 10.9378 29C12.2978 29.2933 13.7245 29.44 15.2178 29.44C16.5245 29.44 17.8578 29.2933 19.2178 29C20.6045 28.7333 21.9511 28.3467 23.2578 27.84L24.3778 30.56C22.8311 31.3067 21.2445 31.8533 19.6178 32.2C17.9911 32.5733 16.3911 32.76 14.8178 32.76Z" fill="white"/>
</svg>
