<svg width="25" height="33" viewBox="0 0 25 33" fill="none" xmlns="http://www.w3.org/2000/svg">
<path d="M14.6266 32.76C12.7599 32.76 10.9732 32.5467 9.26656 32.12C7.58656 31.6933 6.09323 31.0267 4.78656 30.12C3.50656 29.24 2.49323 28.12 1.74656 26.76C0.999896 25.4 0.626563 23.8 0.626563 21.96C0.626563 20.4133 0.853229 18.9333 1.30656 17.52C1.7599 16.1333 2.41323 14.8267 3.26656 13.6C4.14656 12.3467 5.21323 11.2 6.46656 10.16C7.7199 9.12 9.14656 8.2 10.7466 7.4C12.3466 6.57333 14.0932 5.88 15.9866 5.32L15.5466 5.84C14.8532 5.62667 14.1466 5.4 13.4266 5.16C12.7066 4.89333 11.9599 4.65333 11.1866 4.44C10.4132 4.2 9.58656 4.01333 8.70656 3.88C7.82656 3.74667 6.8799 3.68 5.86656 3.68C5.06656 3.68 4.3599 3.74667 3.74656 3.88C3.1599 4.01333 2.5999 4.14667 2.06656 4.28L1.50656 1.32C2.1999 1.02667 2.97323 0.799999 3.82656 0.64C4.70656 0.453333 5.58656 0.36 6.46656 0.36C7.69323 0.36 8.78656 0.48 9.74656 0.72C10.7066 0.933333 11.6132 1.2 12.4666 1.52C13.3466 1.84 14.2666 2.17333 15.2266 2.52C16.1866 2.84 17.2532 3.12 18.4266 3.36C19.6266 3.57333 21.0399 3.69333 22.6666 3.72H23.0266L23.1066 7C21.8266 7 20.4666 7.14667 19.0266 7.44C17.5866 7.73333 16.1466 8.16 14.7066 8.72C13.2932 9.28 11.9332 9.97333 10.6266 10.8C9.3199 11.6267 8.1599 12.5867 7.14656 13.68C6.1599 14.7467 5.37323 15.9333 4.78656 17.24C4.1999 18.5733 3.90656 20.0133 3.90656 21.56C3.90656 22.9467 4.1999 24.1333 4.78656 25.12C5.37323 26.1333 6.17323 26.96 7.18656 27.6C8.22656 28.24 9.41323 28.7067 10.7466 29C12.1066 29.2933 13.5332 29.44 15.0266 29.44C16.3332 29.44 17.6666 29.2933 19.0266 29C20.4132 28.7333 21.7599 28.3467 23.0666 27.84L24.1866 30.56C22.6399 31.3067 21.0532 31.8533 19.4266 32.2C17.7999 32.5733 16.1999 32.76 14.6266 32.76Z" fill="white"/>
</svg>
