<svg width="17" height="20" viewBox="0 0 17 20" fill="none" xmlns="http://www.w3.org/2000/svg">
<path d="M0.86875 17.2L2.46875 14.44C3.00208 14.7867 3.74875 15.12 4.70875 15.44C5.66875 15.76 6.78875 15.92 8.06875 15.92C9.40208 15.92 10.4554 15.7867 11.2287 15.52C12.0288 15.2533 12.6021 14.8667 12.9488 14.36C13.3221 13.8267 13.5088 13.2133 13.5088 12.52C13.5088 11.9867 13.3888 11.3333 13.1488 10.56C12.9354 9.76 12.4554 8.69333 11.7088 7.36C10.9621 6 9.81542 4.22667 8.26875 2.04L11.0288 0.24C12.4421 2.18667 13.5621 3.94667 14.3888 5.52C15.2421 7.09333 15.8421 8.48 16.1888 9.68C16.5621 10.8533 16.7488 11.8667 16.7488 12.72C16.7488 13.7867 16.4821 14.8267 15.9488 15.84C15.4154 16.8267 14.5221 17.64 13.2688 18.28C12.0154 18.92 10.2821 19.24 8.06875 19.24C7.10875 19.24 6.17542 19.16 5.26875 19C4.38875 18.84 3.57542 18.6133 2.82875 18.32C2.08208 18 1.42875 17.6267 0.86875 17.2Z" fill="#FF9500"/>
</svg>
