<svg width="17" height="28" viewBox="0 0 17 28" fill="none" xmlns="http://www.w3.org/2000/svg">
<path d="M0.86875 25.2L2.46875 22.44C3.00208 22.7867 3.74875 23.12 4.70875 23.44C5.66875 23.76 6.78875 23.92 8.06875 23.92C9.40208 23.92 10.4554 23.7867 11.2287 23.52C12.0288 23.2533 12.6021 22.8667 12.9488 22.36C13.3221 21.8267 13.5088 21.2133 13.5088 20.52C13.5088 19.9867 13.3888 19.3333 13.1488 18.56C12.9354 17.76 12.4554 16.6933 11.7088 15.36C10.9621 14 9.81542 12.2267 8.26875 10.04L11.0288 8.24C12.4421 10.1867 13.5621 11.9467 14.3888 13.52C15.2421 15.0933 15.8421 16.48 16.1888 17.68C16.5621 18.8533 16.7488 19.8667 16.7488 20.72C16.7488 21.7867 16.4821 22.8267 15.9488 23.84C15.4154 24.8267 14.5221 25.64 13.2688 26.28C12.0154 26.92 10.2821 27.24 8.06875 27.24C7.10875 27.24 6.17542 27.16 5.26875 27C4.38875 26.84 3.57542 26.6133 2.82875 26.32C2.08208 26 1.42875 25.6267 0.86875 25.2ZM8.10875 4.6C7.54875 4.6 7.06875 4.41333 6.66875 4.04C6.29542 3.64 6.10875 3.17333 6.10875 2.64C6.10875 2.10667 6.29542 1.64 6.66875 1.24C7.06875 0.839998 7.54875 0.639998 8.10875 0.639998C8.64208 0.639998 9.09542 0.839998 9.46875 1.24C9.86875 1.64 10.0688 2.10667 10.0688 2.64C10.0688 3.17333 9.86875 3.64 9.46875 4.04C9.09542 4.41333 8.64208 4.6 8.10875 4.6Z" fill="white"/>
</svg>
