<svg width="14" height="24" viewBox="0 0 14 24" fill="none" xmlns="http://www.w3.org/2000/svg">
<path d="M1.31625 23.2L0.15625 20.16C2.84958 19.3067 4.91625 18.28 6.35625 17.08C7.82292 15.9067 8.82292 14.68 9.35625 13.4C9.91625 12.12 10.1963 10.8933 10.1963 9.72C10.1963 8.97333 10.1163 8.25333 9.95625 7.56C9.79625 6.86667 9.51625 6.08 9.11625 5.2C8.71625 4.32 8.15625 3.22667 7.43625 1.92L10.3563 0.439999C11.3696 2.17333 12.0896 3.81333 12.5163 5.36C12.9696 6.90667 13.1963 8.26667 13.1963 9.44C13.1963 11.12 12.9163 12.64 12.3563 14C11.8229 15.36 11.1029 16.56 10.1963 17.6C9.31625 18.6667 8.34292 19.5733 7.27625 20.32C6.23625 21.0667 5.18292 21.68 4.11625 22.16C3.07625 22.64 2.14292 22.9867 1.31625 23.2Z" fill="white"/>
</svg>
