<svg width="14" height="33" viewBox="0 0 14 33" fill="none" xmlns="http://www.w3.org/2000/svg">
<path d="M1.31625 32.2L0.15625 29.16C2.84958 28.3067 4.91625 27.28 6.35625 26.08C7.82292 24.9067 8.82292 23.68 9.35625 22.4C9.91625 21.12 10.1963 19.8933 10.1963 18.72C10.1963 17.9733 10.1163 17.2533 9.95625 16.56C9.79625 15.8667 9.51625 15.08 9.11625 14.2C8.71625 13.32 8.15625 12.2267 7.43625 10.92L10.3563 9.44C11.3696 11.1733 12.0896 12.8133 12.5163 14.36C12.9696 15.9067 13.1963 17.2667 13.1963 18.44C13.1963 20.12 12.9163 21.64 12.3563 23C11.8229 24.36 11.1029 25.56 10.1963 26.6C9.31625 27.6667 8.34292 28.5733 7.27625 29.32C6.23625 30.0667 5.18292 30.68 4.11625 31.16C3.07625 31.64 2.14292 31.9867 1.31625 32.2ZM8.23625 4.84C7.67625 4.84 7.19625 4.65333 6.79625 4.28C6.42292 3.88 6.23625 3.41333 6.23625 2.88C6.23625 2.34667 6.42292 1.88 6.79625 1.48C7.19625 1.08 7.67625 0.879999 8.23625 0.879999C8.76958 0.879999 9.22292 1.08 9.59625 1.48C9.99625 1.88 10.1963 2.34667 10.1963 2.88C10.1963 3.41333 9.99625 3.88 9.59625 4.28C9.22292 4.65333 8.76958 4.84 8.23625 4.84Z" fill="white"/>
</svg>
