<svg width="46" height="27" viewBox="0 0 46 27" fill="none" xmlns="http://www.w3.org/2000/svg">
<path d="M11.8403 26.28C10.3203 26.28 8.88031 26.0667 7.52031 25.64C6.16031 25.24 4.94698 24.64 3.88031 23.84C2.84031 23.04 2.01365 22.0667 1.40031 20.92C0.813646 19.8 0.520313 18.5067 0.520313 17.04C0.520313 16.4 0.573646 15.72 0.680313 15C0.813646 14.2533 1.00031 13.4667 1.24031 12.64C1.50698 11.7867 1.82698 10.8933 2.20031 9.96L5.08031 11.08C4.81365 11.8267 4.57365 12.5333 4.36031 13.2C4.17365 13.8667 4.02698 14.4933 3.92031 15.08C3.84031 15.6667 3.80031 16.2267 3.80031 16.76C3.80031 18.12 4.16031 19.2667 4.88031 20.2C5.62698 21.1333 6.61365 21.8267 7.84031 22.28C9.09365 22.76 10.467 23 11.9603 23C13.7736 23 15.2936 22.7867 16.5203 22.36C17.747 21.96 18.7203 21.4133 19.4403 20.72C20.1603 20.0533 20.667 19.3067 20.9603 18.48C21.2803 17.6533 21.4403 16.8133 21.4403 15.96C21.4403 14.7867 21.347 13.68 21.1603 12.64C21.0003 11.6 20.7736 10.5867 20.4803 9.6C20.2136 8.58667 19.9203 7.56 19.6003 6.52L22.8403 5.64C23.1336 6.65333 23.3603 7.48 23.5203 8.12C23.6803 8.73333 23.8003 9.22667 23.8803 9.6C23.987 9.97333 24.0803 10.3067 24.1603 10.6C24.4536 11.5867 24.787 12.32 25.1603 12.8C25.5603 13.2533 26.0136 13.56 26.5203 13.72C27.0536 13.8533 27.6536 13.92 28.3203 13.92C28.8536 13.92 29.3203 13.8533 29.7203 13.72C30.147 13.5867 30.5336 13.2667 30.8803 12.76C31.2536 12.2533 31.5736 11.44 31.8403 10.32C32.1336 9.2 32.4003 7.66667 32.6403 5.72L35.6803 6.28C35.6003 6.76 35.507 7.34667 35.4003 8.04C35.2936 8.73333 35.187 9.42667 35.0803 10.12C35.0003 10.7867 34.9603 11.3467 34.9603 11.8C34.9603 12.1733 35.0403 12.5333 35.2003 12.88C35.387 13.2 35.7336 13.4533 36.2403 13.64C36.7736 13.8267 37.5603 13.92 38.6003 13.92C39.427 13.92 40.1336 13.8667 40.7203 13.76C41.3336 13.6267 41.8003 13.32 42.1203 12.84C42.467 12.3333 42.6403 11.5467 42.6403 10.48C42.6403 9.81333 42.5336 9.02667 42.3203 8.12C42.107 7.18667 41.827 6.2 41.4803 5.16C41.1336 4.12 40.7603 3.09333 40.3603 2.08L43.6003 0.879999C43.947 1.73333 44.267 2.70667 44.5603 3.8C44.8803 4.89333 45.147 5.97333 45.3603 7.04C45.5736 8.10667 45.6803 9.04 45.6803 9.84C45.6803 11.2 45.4936 12.3467 45.1203 13.28C44.7736 14.2133 44.2803 14.9733 43.6403 15.56C43.0003 16.1467 42.2403 16.5733 41.3603 16.84C40.507 17.08 39.5736 17.2 38.5603 17.2C37.627 17.2 36.8136 17.12 36.1203 16.96C35.4536 16.8 34.8803 16.56 34.4003 16.24C33.947 15.8933 33.587 15.4667 33.3203 14.96C33.0803 14.4267 32.907 13.8133 32.8003 13.12H34.1603C33.7336 14.08 33.2536 14.8667 32.7203 15.48C32.187 16.0667 31.547 16.5067 30.8003 16.8C30.0803 17.0667 29.187 17.2 28.1203 17.2C27.2936 17.2 26.587 17.0933 26.0003 16.88C25.4136 16.64 24.9203 16.3467 24.5203 16C24.147 15.6267 23.8536 15.2133 23.6403 14.76C23.427 14.28 23.267 13.8 23.1603 13.32L24.8003 15.36C24.667 16.64 24.3736 17.92 23.9203 19.2C23.4936 20.48 22.8003 21.6533 21.8403 22.72C20.907 23.8133 19.627 24.68 18.0003 25.32C16.3736 25.96 14.3203 26.28 11.8403 26.28Z" fill="white"/>
</svg>
