<svg width="46" height="36" viewBox="0 0 46 36" fill="none" xmlns="http://www.w3.org/2000/svg">
<path d="M11.8403 35.28C10.3203 35.28 8.88031 35.0667 7.52031 34.64C6.16031 34.24 4.94698 33.64 3.88031 32.84C2.84031 32.04 2.01365 31.0667 1.40031 29.92C0.813646 28.8 0.520313 27.5067 0.520313 26.04C0.520313 25.4 0.573646 24.72 0.680313 24C0.813646 23.2533 1.00031 22.4667 1.24031 21.64C1.50698 20.7867 1.82698 19.8933 2.20031 18.96L5.08031 20.08C4.81365 20.8267 4.57365 21.5333 4.36031 22.2C4.17365 22.8667 4.02698 23.4933 3.92031 24.08C3.84031 24.6667 3.80031 25.2267 3.80031 25.76C3.80031 27.12 4.16031 28.2667 4.88031 29.2C5.62698 30.1333 6.61365 30.8267 7.84031 31.28C9.09365 31.76 10.467 32 11.9603 32C13.7736 32 15.2936 31.7867 16.5203 31.36C17.747 30.96 18.7203 30.4133 19.4403 29.72C20.1603 29.0533 20.667 28.3067 20.9603 27.48C21.2803 26.6533 21.4403 25.8133 21.4403 24.96C21.4403 23.7867 21.347 22.68 21.1603 21.64C21.0003 20.6 20.7736 19.5867 20.4803 18.6C20.2136 17.5867 19.9203 16.56 19.6003 15.52L22.8403 14.64C23.1336 15.6533 23.3603 16.48 23.5203 17.12C23.6803 17.7333 23.8003 18.2267 23.8803 18.6C23.987 18.9733 24.0803 19.3067 24.1603 19.6C24.4536 20.5867 24.787 21.32 25.1603 21.8C25.5603 22.2533 26.0136 22.56 26.5203 22.72C27.0536 22.8533 27.6536 22.92 28.3203 22.92C28.8536 22.92 29.3203 22.8533 29.7203 22.72C30.147 22.5867 30.5336 22.2667 30.8803 21.76C31.2536 21.2533 31.5736 20.44 31.8403 19.32C32.1336 18.2 32.4003 16.6667 32.6403 14.72L35.6803 15.28C35.6003 15.76 35.507 16.3467 35.4003 17.04C35.2936 17.7333 35.187 18.4267 35.0803 19.12C35.0003 19.7867 34.9603 20.3467 34.9603 20.8C34.9603 21.1733 35.0403 21.5333 35.2003 21.88C35.387 22.2 35.7336 22.4533 36.2403 22.64C36.7736 22.8267 37.5603 22.92 38.6003 22.92C39.427 22.92 40.1336 22.8667 40.7203 22.76C41.3336 22.6267 41.8003 22.32 42.1203 21.84C42.467 21.3333 42.6403 20.5467 42.6403 19.48C42.6403 18.8133 42.5336 18.0267 42.3203 17.12C42.107 16.1867 41.827 15.2 41.4803 14.16C41.1336 13.12 40.7603 12.0933 40.3603 11.08L43.6003 9.88C43.947 10.7333 44.267 11.7067 44.5603 12.8C44.8803 13.8933 45.147 14.9733 45.3603 16.04C45.5736 17.1067 45.6803 18.04 45.6803 18.84C45.6803 20.2 45.4936 21.3467 45.1203 22.28C44.7736 23.2133 44.2803 23.9733 43.6403 24.56C43.0003 25.1467 42.2403 25.5733 41.3603 25.84C40.507 26.08 39.5736 26.2 38.5603 26.2C37.627 26.2 36.8136 26.12 36.1203 25.96C35.4536 25.8 34.8803 25.56 34.4003 25.24C33.947 24.8933 33.587 24.4667 33.3203 23.96C33.0803 23.4267 32.907 22.8133 32.8003 22.12H34.1603C33.7336 23.08 33.2536 23.8667 32.7203 24.48C32.187 25.0667 31.547 25.5067 30.8003 25.8C30.0803 26.0667 29.187 26.2 28.1203 26.2C27.2936 26.2 26.587 26.0933 26.0003 25.88C25.4136 25.64 24.9203 25.3467 24.5203 25C24.147 24.6267 23.8536 24.2133 23.6403 23.76C23.427 23.28 23.267 22.8 23.1603 22.32L24.8003 24.36C24.667 25.64 24.3736 26.92 23.9203 28.2C23.4936 29.48 22.8003 30.6533 21.8403 31.72C20.907 32.8133 19.627 33.68 18.0003 34.32C16.3736 34.96 14.3203 35.28 11.8403 35.28ZM32.2803 4.2C31.7203 4.2 31.2403 4.01333 30.8403 3.64C30.467 3.24 30.2803 2.77333 30.2803 2.24C30.2803 1.70667 30.467 1.24 30.8403 0.84C31.2403 0.439998 31.7203 0.239998 32.2803 0.239998C32.8136 0.239998 33.267 0.439998 33.6403 0.84C34.0403 1.24 34.2403 1.70667 34.2403 2.24C34.2403 2.77333 34.0403 3.24 33.6403 3.64C33.267 4.01333 32.8136 4.2 32.2803 4.2ZM29.5603 8.6C29.0003 8.6 28.5203 8.41333 28.1203 8.04C27.747 7.64 27.5603 7.17333 27.5603 6.64C27.5603 6.10667 27.747 5.64 28.1203 5.24C28.5203 4.84 29.0003 4.64 29.5603 4.64C30.0936 4.64 30.547 4.84 30.9203 5.24C31.3203 5.64 31.5203 6.10667 31.5203 6.64C31.5203 7.17333 31.3203 7.64 30.9203 8.04C30.547 8.41333 30.0936 8.6 29.5603 8.6ZM35.0003 8.6C34.4403 8.6 33.9603 8.41333 33.5603 8.04C33.187 7.64 33.0003 7.17333 33.0003 6.64C33.0003 6.10667 33.187 5.64 33.5603 5.24C33.9603 4.84 34.4403 4.64 35.0003 4.64C35.5336 4.64 35.987 4.84 36.3603 5.24C36.7603 5.64 36.9603 6.10667 36.9603 6.64C36.9603 7.17333 36.7603 7.64 36.3603 8.04C35.987 8.41333 35.5336 8.6 35.0003 8.6Z" fill="white"/>
</svg>
