<svg width="50" height="34" viewBox="0 0 50 34" fill="none" xmlns="http://www.w3.org/2000/svg">
<path d="M11.9067 33.28C10.3867 33.28 8.94672 33.0667 7.58672 32.64C6.22672 32.24 5.01339 31.64 3.94672 30.84C2.90672 30.04 2.08005 29.0667 1.46672 27.92C0.880052 26.8 0.586719 25.5067 0.586719 24.04C0.586719 23.4 0.640052 22.72 0.746719 22C0.880052 21.2533 1.06672 20.4667 1.30672 19.64C1.57339 18.7867 1.89339 17.8933 2.26672 16.96L5.14672 18.08C4.88005 18.8267 4.64005 19.5333 4.42672 20.2C4.24005 20.8667 4.09339 21.4933 3.98672 22.08C3.90672 22.6667 3.86672 23.2267 3.86672 23.76C3.86672 25.12 4.22672 26.2667 4.94672 27.2C5.69339 28.1333 6.68005 28.8267 7.90672 29.28C9.16005 29.76 10.5334 30 12.0267 30C13.8401 30 15.3601 29.7733 16.5867 29.32C17.8134 28.8667 18.7867 28.2533 19.5067 27.48C20.2267 26.7333 20.7334 25.88 21.0267 24.92C21.3467 23.9867 21.5067 23.0267 21.5067 22.04C21.5067 20.7333 21.3067 19.3867 20.9067 18C20.5334 16.5867 20.1201 15.0933 19.6667 13.52L22.9067 12.64C23.2001 13.6533 23.4134 14.48 23.5467 15.12C23.7067 15.7333 23.8267 16.24 23.9067 16.64C24.0134 17.0133 24.1201 17.3333 24.2267 17.6C24.5201 18.2933 24.9334 18.88 25.4667 19.36C26.0267 19.8133 26.7467 20.1867 27.6267 20.48C28.5334 20.7467 29.6401 20.9467 30.9467 21.08C32.2534 21.1867 33.8001 21.24 35.5867 21.24C37.0001 21.24 38.2801 21.1733 39.4267 21.04C40.6001 20.9067 41.6401 20.7067 42.5467 20.44C43.4534 20.1467 44.2134 19.8 44.8267 19.4C45.4667 18.9733 45.9467 18.4933 46.2667 17.96C46.5867 17.4 46.7467 16.7867 46.7467 16.12C46.7467 15.5333 46.6001 14.96 46.3067 14.4C46.0134 13.8133 45.5601 13.32 44.9467 12.92C44.3334 12.52 43.5201 12.32 42.5067 12.32C41.2267 12.32 39.9467 12.6533 38.6667 13.32C37.4134 13.9867 36.2134 14.8267 35.0667 15.84C33.9467 16.8267 32.9467 17.84 32.0667 18.88C31.1867 19.92 30.4801 20.8267 29.9467 21.6L26.4667 21.48C27.1334 20.3867 27.9201 19.2533 28.8267 18.08C29.7334 16.9067 30.7201 15.7867 31.7867 14.72C32.8534 13.6533 33.9867 12.6933 35.1867 11.84C36.3867 10.9867 37.6134 10.3067 38.8667 9.8C40.1467 9.29333 41.4401 9.04 42.7467 9.04C44.2134 9.04 45.4667 9.34667 46.5067 9.96C47.5734 10.5467 48.3867 11.3467 48.9467 12.36C49.5334 13.3733 49.8267 14.52 49.8267 15.8C49.8267 16.9733 49.5734 18.0933 49.0667 19.16C48.5601 20.2 47.7334 21.12 46.5867 21.92C45.4401 22.72 43.9067 23.36 41.9867 23.84C40.0667 24.2933 37.6934 24.52 34.8667 24.52C32.8401 24.52 31.1067 24.3867 29.6667 24.12C28.2534 23.88 27.0801 23.56 26.1467 23.16C25.2401 22.7333 24.5467 22.28 24.0667 21.8C23.6134 21.2933 23.3334 20.8 23.2267 20.32L24.8667 22.36C24.7334 23.64 24.4401 24.92 23.9867 26.2C23.5601 27.48 22.8667 28.6533 21.9067 29.72C20.9734 30.8133 19.6934 31.68 18.0667 32.32C16.4401 32.96 14.3867 33.28 11.9067 33.28ZM41.5867 4.92C41.0267 4.92 40.5467 4.73333 40.1467 4.36C39.7734 3.96 39.5867 3.49333 39.5867 2.96C39.5867 2.42667 39.7734 1.96 40.1467 1.56C40.5467 1.16 41.0267 0.959999 41.5867 0.959999C42.1201 0.959999 42.5734 1.16 42.9467 1.56C43.3467 1.96 43.5467 2.42667 43.5467 2.96C43.5467 3.49333 43.3467 3.96 42.9467 4.36C42.5734 4.73333 42.1201 4.92 41.5867 4.92Z" fill="white"/>
</svg>
