<svg width="30" height="30" viewBox="0 0 30 30" fill="none" xmlns="http://www.w3.org/2000/svg">
<path d="M14.807 29.52C13.127 29.52 11.567 29.4933 10.127 29.44C8.7137 29.3867 7.42037 29.32 6.24703 29.24C5.0737 29.1867 4.0337 29.1067 3.12703 29C2.22036 28.92 1.46036 28.84 0.847031 28.76L1.20703 25.64C1.98036 25.7467 2.86036 25.84 3.84703 25.92C4.86036 26 5.96703 26.0667 7.16703 26.12C8.3937 26.1467 9.70037 26.1733 11.087 26.2C12.4737 26.2267 13.9537 26.24 15.527 26.24C17.287 26.24 18.8604 26.1333 20.247 25.92C21.6337 25.7067 22.7937 25.3867 23.727 24.96C24.687 24.5067 25.4204 23.96 25.927 23.32C26.4337 22.68 26.687 21.9467 26.687 21.12C26.687 20.5333 26.5404 19.96 26.247 19.4C25.9537 18.8133 25.5004 18.32 24.887 17.92C24.2737 17.52 23.4604 17.32 22.447 17.32C21.167 17.32 19.887 17.6533 18.607 18.32C17.3537 18.9867 16.1537 19.8267 15.007 20.84C13.887 21.8267 12.887 22.84 12.007 23.88C11.127 24.92 10.4204 25.8267 9.88703 26.6L6.40703 26.48C7.26037 25.0933 8.2737 23.68 9.44703 22.24C10.647 20.7733 11.9537 19.4267 13.367 18.2C14.807 16.9467 16.3137 15.9467 17.887 15.2C19.4604 14.4267 21.0604 14.04 22.687 14.04C24.1537 14.04 25.407 14.3467 26.447 14.96C27.5137 15.5467 28.327 16.3467 28.887 17.36C29.4737 18.3733 29.767 19.52 29.767 20.8C29.767 22.3733 29.3004 23.8267 28.367 25.16C27.4604 26.4667 25.9137 27.52 23.727 28.32C21.5404 29.12 18.567 29.52 14.807 29.52ZM8.56703 25.04L7.76703 0.439998H11.007L11.807 22.24L8.56703 25.04Z" fill="white"/>
</svg>
