<svg width="30" height="30" viewBox="0 0 30 30" fill="none" xmlns="http://www.w3.org/2000/svg">
<path d="M14.1895 29.52C12.5095 29.52 10.9495 29.4933 9.50953 29.44C8.0962 29.3867 6.80286 29.32 5.62953 29.24C4.4562 29.1867 3.4162 29.1067 2.50953 29C1.60286 28.92 0.842864 28.84 0.229531 28.76L0.589531 25.64C1.36286 25.7467 2.24286 25.84 3.22953 25.92C4.24286 26 5.34953 26.0667 6.54953 26.12C7.7762 26.1467 9.08286 26.1733 10.4695 26.2C11.8562 26.2267 13.3362 26.24 14.9095 26.24C16.6695 26.24 18.2429 26.1333 19.6295 25.92C21.0162 25.7067 22.1762 25.3867 23.1095 24.96C24.0695 24.5067 24.8029 23.96 25.3095 23.32C25.8162 22.68 26.0695 21.9467 26.0695 21.12C26.0695 20.5333 25.9229 19.96 25.6295 19.4C25.3362 18.8133 24.8829 18.32 24.2695 17.92C23.6562 17.52 22.8429 17.32 21.8295 17.32C20.5495 17.32 19.2695 17.6533 17.9895 18.32C16.7362 18.9867 15.5362 19.8267 14.3895 20.84C13.2695 21.8267 12.2695 22.84 11.3895 23.88C10.5095 24.92 9.80286 25.8267 9.26953 26.6L5.78953 26.48C6.64286 25.0933 7.6562 23.68 8.82953 22.24C10.0295 20.7733 11.3362 19.4267 12.7495 18.2C14.1895 16.9467 15.6962 15.9467 17.2695 15.2C18.8429 14.4267 20.4429 14.04 22.0695 14.04C23.5362 14.04 24.7895 14.3467 25.8295 14.96C26.8962 15.5467 27.7095 16.3467 28.2695 17.36C28.8562 18.3733 29.1495 19.52 29.1495 20.8C29.1495 22.3733 28.6829 23.8267 27.7495 25.16C26.8429 26.4667 25.2962 27.52 23.1095 28.32C20.9229 29.12 17.9495 29.52 14.1895 29.52ZM7.94953 25.04L7.14953 0.439998H10.3895L11.1895 22.24L7.94953 25.04ZM20.1095 9.92C19.5495 9.92 19.0695 9.73333 18.6695 9.36C18.2962 8.96 18.1095 8.49333 18.1095 7.96C18.1095 7.42667 18.2962 6.96 18.6695 6.56C19.0695 6.16 19.5495 5.96 20.1095 5.96C20.6429 5.96 21.0962 6.16 21.4695 6.56C21.8695 6.96 22.0695 7.42667 22.0695 7.96C22.0695 8.49333 21.8695 8.96 21.4695 9.36C21.0962 9.73333 20.6429 9.92 20.1095 9.92Z" fill="white"/>
</svg>
