<svg width="23" height="36" viewBox="0 0 23 36" fill="none" xmlns="http://www.w3.org/2000/svg">
<path d="M13.392 35.76C11.952 35.76 10.4587 35.5867 8.91203 35.24C7.36537 34.92 5.92536 34.3467 4.59203 33.52C3.2587 32.72 2.16536 31.6267 1.31203 30.24C0.485365 28.88 0.0720314 27.16 0.0720314 25.08C0.0720314 23.16 0.458698 21.36 1.23203 19.68C2.00536 18 3.0987 16.48 4.51203 15.12C5.95203 13.76 7.64537 12.6133 9.59203 11.68C11.5387 10.7467 13.6854 10.08 16.032 9.68L16.872 12.8C14.9254 13.1467 13.1254 13.6667 11.472 14.36C9.8187 15.0533 8.3787 15.9067 7.15203 16.92C5.95203 17.9067 5.0187 19.04 4.35203 20.32C3.68537 21.6267 3.35203 23.0533 3.35203 24.6C3.35203 25.8533 3.56536 26.9333 3.99203 27.84C4.4187 28.7467 4.9787 29.4933 5.67203 30.08C6.39203 30.6933 7.19203 31.1733 8.07203 31.52C8.95203 31.8667 9.84537 32.1067 10.752 32.24C11.6854 32.4 12.5654 32.48 13.392 32.48C14.8054 32.48 16.2454 32.3467 17.712 32.08C19.1787 31.84 20.512 31.4667 21.712 30.96L22.752 33.76C22.112 34.08 21.2587 34.3867 20.192 34.68C19.152 35 18.032 35.2533 16.832 35.44C15.632 35.6533 14.4854 35.76 13.392 35.76ZM6.79203 14.56C5.72537 14.2933 4.76537 13.8133 3.91203 13.12C3.0587 12.4267 2.3787 11.6 1.87203 10.64C1.39203 9.68 1.15203 8.66667 1.15203 7.6C1.15203 5.92 1.5387 4.52 2.31203 3.4C3.11203 2.28 4.12536 1.44 5.35203 0.879999C6.60537 0.319999 7.92537 0.0399995 9.31203 0.0399995C9.92536 0.0399995 10.5787 0.0933325 11.272 0.199999C11.9654 0.306666 12.632 0.466666 13.272 0.68L12.592 3.76C12.0587 3.62667 11.4987 3.52 10.912 3.44C10.3254 3.36 9.79203 3.32 9.31203 3.32C8.35203 3.32 7.4987 3.49333 6.75203 3.84C6.00536 4.18667 5.4187 4.66667 4.99203 5.28C4.56536 5.86667 4.35203 6.56 4.35203 7.36C4.35203 8.08 4.55203 8.73333 4.95203 9.32C5.3787 9.88 5.91203 10.3733 6.55203 10.8C7.19203 11.2 7.84537 11.5067 8.51203 11.72C9.1787 11.9067 9.76537 11.9867 10.272 11.96L6.79203 14.56Z" fill="white"/>
</svg>
