<svg width="24" height="45" viewBox="0 0 24 45" fill="none" xmlns="http://www.w3.org/2000/svg">
<path d="M14.0833 44.76C12.6433 44.76 11.1499 44.5867 9.60328 44.24C8.05661 43.92 6.61661 43.3467 5.28328 42.52C3.94995 41.72 2.85661 40.6267 2.00328 39.24C1.17661 37.88 0.763281 36.16 0.763281 34.08C0.763281 32.16 1.14995 30.36 1.92328 28.68C2.69661 27 3.78995 25.48 5.20328 24.12C6.64328 22.76 8.33662 21.6133 10.2833 20.68C12.2299 19.7467 14.3766 19.08 16.7233 18.68L17.5633 21.8C15.6166 22.1467 13.8166 22.6667 12.1633 23.36C10.5099 24.0533 9.06995 24.9067 7.84328 25.92C6.64328 26.9067 5.70995 28.04 5.04328 29.32C4.37661 30.6267 4.04328 32.0533 4.04328 33.6C4.04328 34.8533 4.25661 35.9333 4.68328 36.84C5.10995 37.7467 5.66995 38.4933 6.36328 39.08C7.08328 39.6933 7.88328 40.1733 8.76328 40.52C9.64328 40.8667 10.5366 41.1067 11.4433 41.24C12.3766 41.4 13.2566 41.48 14.0833 41.48C15.4966 41.48 16.9366 41.3467 18.4033 41.08C19.8699 40.84 21.2033 40.4667 22.4033 39.96L23.4433 42.76C22.8033 43.08 21.9499 43.3867 20.8833 43.68C19.8433 44 18.7233 44.2533 17.5233 44.44C16.3233 44.6533 15.1766 44.76 14.0833 44.76ZM7.48328 23.56C6.41661 23.2933 5.45661 22.8133 4.60328 22.12C3.74995 21.4267 3.06995 20.6 2.56328 19.64C2.08328 18.68 1.84328 17.6667 1.84328 16.6C1.84328 14.92 2.22995 13.52 3.00328 12.4C3.80328 11.28 4.81661 10.44 6.04328 9.88C7.29661 9.32 8.61662 9.04 10.0033 9.04C10.6166 9.04 11.2699 9.09333 11.9633 9.2C12.6566 9.30667 13.3233 9.46667 13.9633 9.68L13.2833 12.76C12.7499 12.6267 12.1899 12.52 11.6033 12.44C11.0166 12.36 10.4833 12.32 10.0033 12.32C9.04328 12.32 8.18995 12.4933 7.44328 12.84C6.69661 13.1867 6.10995 13.6667 5.68328 14.28C5.25661 14.8667 5.04328 15.56 5.04328 16.36C5.04328 17.08 5.24328 17.7333 5.64328 18.32C6.06995 18.88 6.60328 19.3733 7.24328 19.8C7.88328 20.2 8.53662 20.5067 9.20328 20.72C9.86995 20.9067 10.4566 20.9867 10.9633 20.96L7.48328 23.56ZM10.0433 4.92C9.48328 4.92 9.00328 4.73333 8.60328 4.36C8.22995 3.96 8.04328 3.49333 8.04328 2.96C8.04328 2.42667 8.22995 1.96 8.60328 1.56C9.00328 1.16 9.48328 0.959999 10.0433 0.959999C10.5766 0.959999 11.0299 1.16 11.4033 1.56C11.8033 1.96 12.0033 2.42667 12.0033 2.96C12.0033 3.49333 11.8033 3.96 11.4033 4.36C11.0299 4.73333 10.5766 4.92 10.0433 4.92Z" fill="white"/>
</svg>
