<svg width="37" height="30" viewBox="0 0 37 30" fill="none" xmlns="http://www.w3.org/2000/svg">
<path d="M14.932 29.84L15.972 26.56C17.5987 26.56 19.252 26.56 20.932 26.56C22.6387 26.56 24.2387 26.5333 25.732 26.48C27.2254 26.4267 28.5054 26.3333 29.572 26.2C30.6654 26.0667 31.4254 25.8667 31.852 25.6C32.6254 25.0933 33.132 24.3067 33.372 23.24C33.612 22.1467 33.732 20.5867 33.732 18.56C33.732 17.7333 33.652 16.9467 33.492 16.2C33.332 15.4267 33.092 14.7467 32.772 14.16C32.452 13.5733 32.0654 13.1067 31.612 12.76C31.1854 12.4133 30.692 12.24 30.132 12.24C29.5187 12.24 28.9587 12.48 28.452 12.96C27.972 13.4133 27.5854 14 27.292 14.72C27.0254 15.44 26.892 16.16 26.892 16.88C26.892 17.44 26.9987 17.92 27.212 18.32C27.452 18.72 27.8387 19.04 28.372 19.28C28.9054 19.4933 29.5987 19.6 30.452 19.6C31.2254 19.6 31.9987 19.52 32.772 19.36C33.572 19.2 34.252 18.9867 34.812 18.72L34.972 21.52C34.5454 21.8133 34.0654 22.0533 33.532 22.24C32.9987 22.4267 32.4387 22.56 31.852 22.64C31.2654 22.72 30.6787 22.76 30.092 22.76C28.732 22.76 27.572 22.5733 26.612 22.2C25.6787 21.8267 24.9587 21.2667 24.452 20.52C23.972 19.7733 23.732 18.8267 23.732 17.68C23.732 16.6667 23.892 15.6533 24.212 14.64C24.532 13.6 24.9854 12.6533 25.572 11.8C26.1587 10.9467 26.8654 10.2667 27.692 9.76C28.5187 9.22666 29.4387 8.96 30.452 8.96C31.892 8.96 33.0787 9.42667 34.012 10.36C34.972 11.2933 35.6787 12.52 36.132 14.04C36.612 15.5333 36.852 17.12 36.852 18.8C36.852 20.1333 36.772 21.3733 36.612 22.52C36.452 23.64 36.1854 24.64 35.812 25.52C35.4387 26.4 34.932 27.16 34.292 27.8C33.7854 28.3067 32.892 28.7067 31.612 29C30.3587 29.2667 28.8387 29.4533 27.052 29.56C25.2654 29.6933 23.332 29.7733 21.252 29.8C19.172 29.8267 17.0654 29.84 14.932 29.84ZM14.932 29.84C12.5587 29.84 10.4654 29.68 8.65203 29.36C6.86536 29.0667 5.37203 28.6 4.17203 27.96C2.97203 27.32 2.06536 26.4933 1.45203 25.48C0.838698 24.44 0.532031 23.1867 0.532031 21.72C0.532031 21.0533 0.585365 20.3733 0.692031 19.68C0.798698 18.96 0.932031 18.24 1.09203 17.52C1.2787 16.8 1.46536 16.1067 1.65203 15.44L4.65203 16.2C4.54536 16.6 4.42536 17.08 4.29203 17.64C4.1587 18.1733 4.0387 18.72 3.93203 19.28C3.85203 19.84 3.81203 20.3467 3.81203 20.8C3.81203 22.1867 4.1587 23.3067 4.85203 24.16C5.57203 24.9867 6.81203 25.6 8.57203 26C10.332 26.3733 12.7987 26.56 15.972 26.56L16.772 28.56L14.932 29.84ZM29.692 4.84C29.132 4.84 28.652 4.65333 28.252 4.28C27.8787 3.88 27.692 3.41333 27.692 2.88C27.692 2.34666 27.8787 1.88 28.252 1.48C28.652 1.08 29.132 0.88 29.692 0.88C30.2254 0.88 30.6787 1.08 31.052 1.48C31.452 1.88 31.652 2.34666 31.652 2.88C31.652 3.41333 31.452 3.88 31.052 4.28C30.6787 4.65333 30.2254 4.84 29.692 4.84Z" fill="white"/>
</svg>
