<svg width="29" height="33" viewBox="0 0 29 33" fill="none" xmlns="http://www.w3.org/2000/svg">
<path d="M12.0517 32.52C10.4517 32.52 8.94505 32.3333 7.53172 31.96C6.11839 31.6133 4.85172 31.0533 3.73172 30.28C2.63839 29.5333 1.77172 28.56 1.13172 27.36C0.518385 26.16 0.211719 24.72 0.211719 23.04C0.211719 22.64 0.251719 22.08 0.331719 21.36C0.438385 20.6133 0.651719 19.72 0.971719 18.68C1.29172 17.64 1.79839 16.4933 2.49172 15.24L5.41172 16.6C5.01172 17.4267 4.67839 18.1867 4.41172 18.88C4.14505 19.5467 3.94505 20.1733 3.81172 20.76C3.70505 21.32 3.65172 21.88 3.65172 22.44C3.65172 23.6933 3.89172 24.7467 4.37172 25.6C4.85172 26.4533 5.51839 27.1333 6.37172 27.64C7.22505 28.1733 8.21172 28.56 9.33172 28.8C10.4517 29.04 11.6517 29.16 12.9317 29.16C14.4784 29.16 15.8784 29.0133 17.1317 28.72C18.4117 28.4267 19.5317 28.0133 20.4917 27.48C21.4517 26.9733 22.2517 26.3733 22.8917 25.68C23.5317 24.9867 23.9851 24.2267 24.2517 23.4C24.5184 22.6 24.7184 21.7333 24.8517 20.8C24.9851 19.84 25.0517 18.8933 25.0517 17.96C25.0517 16.84 24.9051 15.8 24.6117 14.84C24.3184 13.88 23.9051 13.1067 23.3717 12.52C22.8384 11.9333 22.1984 11.64 21.4517 11.64C20.8384 11.64 20.2784 11.88 19.7717 12.36C19.2917 12.8133 18.9051 13.4 18.6117 14.12C18.3451 14.84 18.2117 15.56 18.2117 16.28C18.2117 16.84 18.3184 17.32 18.5317 17.72C18.7717 18.12 19.1584 18.44 19.6917 18.68C20.2251 18.8933 20.9184 19 21.7717 19C22.5451 19 23.3184 18.92 24.0917 18.76C24.8917 18.6 25.5717 18.3867 26.1317 18.12L26.2917 20.92C25.6517 21.3733 24.8917 21.6933 24.0117 21.88C23.1584 22.0667 22.2917 22.16 21.4117 22.16C20.0517 22.16 18.8917 21.9733 17.9317 21.6C16.9984 21.2267 16.2784 20.6667 15.7717 19.92C15.2917 19.1733 15.0517 18.2267 15.0517 17.08C15.0517 16.0667 15.2117 15.0533 15.5317 14.04C15.8517 13 16.3051 12.0533 16.8917 11.2C17.4784 10.3467 18.1851 9.66667 19.0117 9.16C19.8384 8.62667 20.7584 8.36 21.7717 8.36C23.2117 8.36 24.3984 8.82667 25.3317 9.76C26.2917 10.6933 26.9984 11.92 27.4517 13.44C27.9317 14.9333 28.1717 16.52 28.1717 18.2C28.1717 19.5067 28.0517 20.8133 27.8117 22.12C27.5984 23.4 27.2117 24.5867 26.6517 25.68C26.0117 26.9333 25.1984 27.9867 24.2117 28.84C23.2251 29.72 22.0917 30.4267 20.8117 30.96C19.5584 31.52 18.1984 31.92 16.7317 32.16C15.2651 32.4 13.7051 32.52 12.0517 32.52ZM23.8117 4.24C23.2517 4.24 22.7717 4.05333 22.3717 3.68C21.9984 3.28 21.8117 2.81333 21.8117 2.28C21.8117 1.74667 21.9984 1.28 22.3717 0.879998C22.7717 0.479999 23.2517 0.279999 23.8117 0.279999C24.3451 0.279999 24.7984 0.479999 25.1717 0.879998C25.5717 1.28 25.7717 1.74667 25.7717 2.28C25.7717 2.81333 25.5717 3.28 25.1717 3.68C24.7984 4.05333 24.3451 4.24 23.8117 4.24ZM18.3317 4.24C17.7717 4.24 17.2917 4.05333 16.8917 3.68C16.5184 3.28 16.3317 2.81333 16.3317 2.28C16.3317 1.74667 16.5184 1.28 16.8917 0.879998C17.2917 0.479999 17.7717 0.279999 18.3317 0.279999C18.8651 0.279999 19.3184 0.479999 19.6917 0.879998C20.0917 1.28 20.2917 1.74667 20.2917 2.28C20.2917 2.81333 20.0917 3.28 19.6917 3.68C19.3184 4.05333 18.8651 4.24 18.3317 4.24Z" fill="white"/>
</svg>
