<svg width="33" height="30" viewBox="0 0 33 30" fill="none" xmlns="http://www.w3.org/2000/svg">
<path d="M14.9633 29.84L16.0033 26.56C18.6433 26.56 20.8166 26.4667 22.5233 26.28C24.2299 26.0667 25.5499 25.7467 26.4833 25.32C27.4433 24.8667 28.0966 24.2933 28.4433 23.6C28.8166 22.88 28.9766 22.0133 28.9233 21L28.1633 0.439998H31.4033L32.2033 20.64C32.2566 22.0533 32.0833 23.3333 31.6833 24.48C31.2833 25.6 30.4833 26.56 29.2833 27.36C28.0833 28.16 26.3366 28.7733 24.0433 29.2C21.7499 29.6267 18.7233 29.84 14.9633 29.84ZM13.9233 20.84L13.1633 18.32C14.2833 18.0267 15.1899 17.7733 15.8833 17.56C16.5766 17.3467 17.0699 17.1467 17.3633 16.96C17.6833 16.7467 17.8433 16.5333 17.8433 16.32C17.8433 16.0267 17.6833 15.76 17.3633 15.52C17.0699 15.2533 16.7233 14.9867 16.3233 14.72C15.9499 14.4267 15.6033 14.0933 15.2833 13.72C14.9899 13.3467 14.8433 12.8933 14.8433 12.36C14.8433 11.88 14.9766 11.3867 15.2433 10.88C15.5366 10.3467 16.0433 9.8 16.7633 9.24C17.4833 8.65333 18.4966 8.04 19.8033 7.4L21.0433 9.68C19.8166 10.2667 18.9099 10.7733 18.3233 11.2C17.7633 11.6 17.4833 11.96 17.4833 12.28C17.4833 12.52 17.6299 12.7733 17.9233 13.04C18.2433 13.3067 18.5899 13.6 18.9633 13.92C19.3633 14.24 19.7099 14.6133 20.0033 15.04C20.3233 15.44 20.4833 15.92 20.4833 16.48C20.4833 16.8533 20.4033 17.2267 20.2433 17.6C20.0833 17.9467 19.7633 18.3067 19.2833 18.68C18.8299 19.0267 18.1766 19.3867 17.3233 19.76C16.4699 20.1067 15.3366 20.4667 13.9233 20.84ZM14.9633 29.84C12.5899 29.84 10.4966 29.68 8.68328 29.36C6.89661 29.0667 5.40328 28.6 4.20328 27.96C3.00328 27.32 2.09661 26.4933 1.48328 25.48C0.869948 24.44 0.563281 23.1867 0.563281 21.72C0.563281 21.0533 0.616615 20.3733 0.723281 19.68C0.829948 18.96 0.963281 18.24 1.12328 17.52C1.30995 16.8 1.49661 16.1067 1.68328 15.44L4.68328 16.2C4.57661 16.6 4.45661 17.08 4.32328 17.64C4.18995 18.1733 4.06995 18.72 3.96328 19.28C3.88328 19.84 3.84328 20.3467 3.84328 20.8C3.84328 22.1867 4.18995 23.3067 4.88328 24.16C5.60328 24.9867 6.84328 25.6 8.60328 26C10.3633 26.3733 12.8299 26.56 16.0033 26.56L16.8033 28.56L14.9633 29.84Z" fill="white"/>
</svg>
