<svg width="25" height="39" viewBox="0 0 25 39" fill="none" xmlns="http://www.w3.org/2000/svg">
<path d="M0.29375 29.04C0.29375 28.4 0.347083 27.72 0.45375 27C0.587083 26.2533 0.77375 25.4667 1.01375 24.64C1.28042 23.7867 1.60042 22.8933 1.97375 21.96L4.85375 23.08C4.58708 23.8267 4.34708 24.5333 4.13375 25.2C3.94708 25.8667 3.80042 26.4933 3.69375 27.08C3.61375 27.6667 3.57375 28.2267 3.57375 28.76C3.57375 30.04 3.90708 31.1467 4.57375 32.08C5.26708 33.0133 6.21375 33.7333 7.41375 34.24C8.61375 34.7467 10.0138 35 11.6138 35C13.5604 35 15.1604 34.72 16.4138 34.16C17.6938 33.6 18.6804 32.7467 19.3738 31.6C20.0938 30.4533 20.5738 29 20.8138 27.24C21.0538 25.4533 21.1338 23.36 21.0538 20.96L20.2938 0.439998H23.6138L24.2938 21.8C24.3471 23.5867 24.2671 25.3067 24.0538 26.96C23.8671 28.5867 23.4938 30.08 22.9338 31.44C22.3738 32.8267 21.6004 34.0267 20.6138 35.04C19.6271 36.08 18.3871 36.88 16.8938 37.44C15.4004 38 13.6004 38.28 11.4938 38.28C10.0804 38.28 8.70708 38.0933 7.37375 37.72C6.04042 37.3467 4.84042 36.7867 3.77375 36.04C2.70708 35.2933 1.85375 34.3333 1.21375 33.16C0.600417 32.0133 0.29375 30.64 0.29375 29.04Z" fill="white"/>
</svg>
