<svg width="21" height="29" viewBox="0 0 21 29" fill="none" xmlns="http://www.w3.org/2000/svg">
<path d="M15.0794 7.56C15.0794 6.97333 15.0394 6.26667 14.9594 5.44C14.8794 4.61333 14.786 3.78667 14.6794 2.96C14.5727 2.13333 14.466 1.42666 14.3594 0.839998L17.7994 0.439998C17.8794 0.973333 17.9594 1.68 18.0394 2.56C18.146 3.41333 18.226 4.26667 18.2794 5.12C18.3327 5.97333 18.3594 6.68 18.3594 7.24C18.3594 8.52 18.266 9.77333 18.0794 11C17.9194 12.2 17.6527 13.3867 17.2794 14.56C16.906 15.7067 16.4127 16.8267 15.7994 17.92L15.3194 18.8C14.5727 20.0533 13.6527 21.2667 12.5594 22.44C11.466 23.5867 10.186 24.68 8.71938 25.72H13.7594C14.666 25.72 15.3594 25.6133 15.8394 25.4C16.3194 25.16 16.6394 24.8533 16.7994 24.48C16.986 24.1067 17.0794 23.7067 17.0794 23.28C17.0794 22.56 16.6394 21.6667 15.7594 20.6C14.906 19.5067 13.7194 18.3067 12.1994 17C10.6794 15.6667 8.95937 14.2667 7.03938 12.8C5.11938 11.3333 3.09271 9.84 0.959375 8.32L2.83938 5.68C5.29271 7.49333 7.45271 9.13333 9.31938 10.6C11.2127 12.0667 12.826 13.4133 14.1594 14.64C15.5194 15.84 16.626 16.96 17.4794 18C18.3594 19.0133 18.9994 19.9867 19.3994 20.92C19.826 21.8267 20.0394 22.72 20.0394 23.6C20.0394 24.1867 19.9327 24.8 19.7194 25.44C19.5327 26.0533 19.186 26.64 18.6794 27.2C18.1994 27.7333 17.506 28.1733 16.5994 28.52C15.7194 28.84 14.5727 29 13.1594 29H3.95938V25.76C6.70604 23.7867 8.87938 21.8667 10.4794 20C12.106 18.1333 13.2794 16.1867 13.9994 14.16C14.7194 12.1333 15.0794 9.93333 15.0794 7.56Z" fill="white"/>
</svg>
