<svg width="18" height="32" viewBox="0 0 18 32" fill="none" xmlns="http://www.w3.org/2000/svg">
<path d="M2.2725 31.72C1.81917 29.96 1.41917 28.24 1.0725 26.56C0.7525 24.88 0.5125 23.3333 0.3525 21.92C0.1925 20.5067 0.1125 19.3467 0.1125 18.44C0.1125 16.8133 0.405833 15.4667 0.9925 14.4C1.57917 13.3067 2.36583 12.4667 3.3525 11.88C4.33917 11.2667 5.4325 10.8533 6.6325 10.64C7.85917 10.4267 9.1125 10.36 10.3925 10.44C11.6992 10.4933 12.9258 10.6533 14.0725 10.92C14.1525 10.0133 14.0992 9.14667 13.9125 8.32C13.7525 7.46667 13.4725 6.72 13.0725 6.08C12.6992 5.41333 12.2192 4.89333 11.6325 4.52C11.0458 4.14667 10.3792 3.96 9.6325 3.96C8.96583 3.96 8.33917 4.10667 7.7525 4.4C7.16583 4.69333 6.60583 5.14667 6.0725 5.76C5.56583 6.34667 5.0725 7.08 4.5925 7.96L2.1125 6.6C2.80583 5.16 3.56583 4.01333 4.3925 3.16C5.24583 2.30667 6.13917 1.69333 7.0725 1.32C8.00583 0.919999 8.92583 0.719999 9.8325 0.719999C11.1925 0.719999 12.3392 1.01333 13.2725 1.6C14.2058 2.16 14.9392 2.90667 15.4725 3.84C16.0325 4.74667 16.4325 5.73333 16.6725 6.8C16.9392 7.84 17.0725 8.84 17.0725 9.8C17.0725 10.4667 16.9925 11.1333 16.8325 11.8C16.6725 12.4667 16.4725 13.0667 16.2325 13.6C16.0192 14.1333 15.8058 14.5467 15.5925 14.84C14.1525 14.4133 12.8058 14.1067 11.5525 13.92C10.2992 13.7333 9.16583 13.68 8.1525 13.76C7.16583 13.8133 6.3125 14.0267 5.5925 14.4C4.8725 14.7733 4.32583 15.3067 3.9525 16C3.57917 16.6933 3.3925 17.5733 3.3925 18.64C3.3925 19.6267 3.4725 20.8 3.6325 22.16C3.7925 23.52 4.01917 24.9467 4.3125 26.44C4.60583 27.96 4.9525 29.4533 5.3525 30.92L2.2725 31.72Z" fill="white"/>
</svg>
