<svg width="25" height="30" viewBox="0 0 25 30" fill="none" xmlns="http://www.w3.org/2000/svg">
<path d="M0.508594 20.04C0.508594 19.4 0.561927 18.72 0.668594 18C0.801927 17.2533 0.988594 16.4667 1.22859 15.64C1.49526 14.7867 1.81526 13.8933 2.18859 12.96L5.06859 14.08C4.80193 14.8267 4.56193 15.5333 4.34859 16.2C4.16193 16.8667 4.01526 17.4933 3.90859 18.08C3.82859 18.6667 3.78859 19.2267 3.78859 19.76C3.78859 21.1467 4.14859 22.2933 4.86859 23.2C5.58859 24.1067 6.57526 24.7867 7.82859 25.24C9.08193 25.6933 10.4953 25.92 12.0686 25.92C13.8553 25.92 15.3486 25.68 16.5486 25.2C17.7753 24.72 18.7486 24.08 19.4686 23.28C20.1886 22.5067 20.6953 21.64 20.9886 20.68C21.3086 19.72 21.4686 18.7733 21.4686 17.84C21.4686 16.8267 21.2686 15.6 20.8686 14.16C20.4953 12.72 19.7886 10.9333 18.7486 8.8L21.7486 7.28C22.2819 8.29333 22.7619 9.36 23.1886 10.48C23.6419 11.5733 24.0019 12.7067 24.2686 13.88C24.5619 15.0267 24.7086 16.2 24.7086 17.4C24.7086 18.44 24.5753 19.5067 24.3086 20.6C24.0686 21.6933 23.6553 22.7467 23.0686 23.76C22.4819 24.8 21.6953 25.72 20.7086 26.52C19.7486 27.3467 18.5486 28 17.1086 28.48C15.6953 28.96 14.0019 29.2 12.0286 29.2C10.4819 29.2 9.00193 29.0133 7.58859 28.64C6.20193 28.2933 4.97526 27.7467 3.90859 27C2.86859 26.2533 2.04193 25.3067 1.42859 24.16C0.81526 23.0133 0.508594 21.64 0.508594 20.04ZM12.5886 4.08C12.0286 4.08 11.5486 3.89333 11.1486 3.52C10.7753 3.12 10.5886 2.65333 10.5886 2.12C10.5886 1.58667 10.7753 1.12 11.1486 0.719999C11.5486 0.319999 12.0286 0.12 12.5886 0.12C13.1219 0.12 13.5753 0.319999 13.9486 0.719999C14.3486 1.12 14.5486 1.58667 14.5486 2.12C14.5486 2.65333 14.3486 3.12 13.9486 3.52C13.5753 3.89333 13.1219 4.08 12.5886 4.08Z" fill="white"/>
</svg>
