<svg width="15" height="19" viewBox="0 0 15 19" fill="none" xmlns="http://www.w3.org/2000/svg">
<path d="M7.47453 19C6.16786 19 4.99453 18.7733 3.95453 18.32C2.91453 17.8667 2.08786 17.1733 1.47453 16.24C0.887865 15.3067 0.594531 14.12 0.594531 12.68C0.594531 11.5333 1.03453 10.1067 1.91453 8.4C2.79453 6.66667 4.32786 4.84 6.51453 2.92L7.27453 5.08L4.55453 2.64L6.63453 0.159999C8.0212 1.25333 9.3012 2.42667 10.4745 3.68C11.6479 4.93333 12.5945 6.26667 13.3145 7.68C14.0345 9.09333 14.3945 10.5867 14.3945 12.16C14.3945 12.7733 14.2879 13.4667 14.0745 14.24C13.8612 15.0133 13.5012 15.7733 12.9945 16.52C12.4879 17.24 11.7812 17.84 10.8745 18.32C9.96787 18.7733 8.83453 19 7.47453 19ZM7.47453 15.72C8.3812 15.72 9.12787 15.5733 9.71453 15.28C10.3279 14.96 10.7812 14.52 11.0745 13.96C11.3945 13.4 11.5545 12.7467 11.5545 12C11.5545 11.3333 11.4345 10.64 11.1945 9.92C10.9812 9.17333 10.5279 8.37333 9.83453 7.52C9.16787 6.64 8.1412 5.65333 6.75453 4.56L8.51453 4.48C7.52787 5.33333 6.67453 6.24 5.95453 7.2C5.23453 8.13333 4.68786 9.05333 4.31453 9.96C3.9412 10.84 3.75453 11.64 3.75453 12.36C3.75453 13.48 4.1012 14.32 4.79453 14.88C5.51453 15.44 6.40786 15.72 7.47453 15.72Z" fill="white"/>
</svg>
