<svg width="15" height="24" viewBox="0 0 15 24" fill="none" xmlns="http://www.w3.org/2000/svg">
<path d="M1.37469 23.2L0.654688 19.92C2.25469 19.7067 3.72135 19.4 5.05469 19C6.41469 18.6267 7.57469 18.08 8.53469 17.36C9.52135 16.64 10.2814 15.6933 10.8147 14.52C11.348 13.3467 11.6147 11.88 11.6147 10.12C11.6147 9.29333 11.5347 8.50667 11.3747 7.76C11.2147 6.98667 10.9747 6.30667 10.6547 5.72C10.3347 5.13333 9.94802 4.66667 9.49469 4.32C9.06802 3.97333 8.57469 3.8 8.01469 3.8C7.40135 3.8 6.84135 4.04 6.33469 4.52C5.85469 4.97333 5.46802 5.56 5.17469 6.28C4.90802 7 4.77469 7.72 4.77469 8.44C4.77469 9 4.88135 9.49333 5.09469 9.92C5.33469 10.32 5.72135 10.6267 6.25469 10.84C6.78802 11.0533 7.48135 11.16 8.33469 11.16C9.10802 11.16 9.88135 11.08 10.6547 10.92C11.4547 10.76 12.1347 10.5467 12.6947 10.28L12.8547 13.08C12.2147 13.5333 11.4547 13.8533 10.5747 14.04C9.72135 14.2267 8.85469 14.32 7.97469 14.32C6.96135 14.32 6.05469 14.2133 5.25469 14C4.48135 13.7867 3.81469 13.48 3.25469 13.08C2.72135 12.6533 2.30802 12.12 2.01469 11.48C1.74802 10.84 1.61469 10.0933 1.61469 9.24C1.61469 8.22667 1.77469 7.21333 2.09469 6.2C2.41469 5.16 2.86802 4.21333 3.45469 3.36C4.04135 2.50667 4.74802 1.82667 5.57469 1.32C6.40135 0.786666 7.32135 0.52 8.33469 0.52C9.40135 0.52 10.3347 0.799999 11.1347 1.36C11.9347 1.89333 12.6014 2.62667 13.1347 3.56C13.668 4.49333 14.068 5.54667 14.3347 6.72C14.6014 7.89333 14.7347 9.10667 14.7347 10.36C14.7347 12.84 14.228 14.9733 13.2147 16.76C12.228 18.5733 10.7347 20.0133 8.73469 21.08C6.76135 22.1467 4.30802 22.8533 1.37469 23.2Z" fill="white"/>
</svg>
