<svg width="30" height="34" viewBox="0 0 30 34" fill="none" xmlns="http://www.w3.org/2000/svg">
<path d="M0.504688 17.04C0.504688 16.4 0.558021 15.72 0.664688 15C0.798021 14.2533 0.984688 13.4667 1.22469 12.64C1.49135 11.7867 1.81135 10.8933 2.18469 9.96L5.06469 11.08C4.79802 11.8267 4.55802 12.5333 4.34469 13.2C4.15802 13.8667 4.01135 14.4933 3.90469 15.08C3.82469 15.6667 3.78469 16.2267 3.78469 16.76C3.78469 17.8 3.99802 18.7067 4.42469 19.48C4.87802 20.2533 5.50469 20.8933 6.30469 21.4C7.10469 21.9333 8.03802 22.3333 9.10469 22.6C10.1714 22.8667 11.318 23 12.5447 23C14.4647 23 16.1447 22.7867 17.5847 22.36C19.0247 21.96 20.2247 21.44 21.1847 20.8C22.1447 20.16 22.8514 19.4933 23.3047 18.8C23.7847 18.1067 24.0247 17.4933 24.0247 16.96C24.0247 16.5867 23.798 16.2533 23.3447 15.96C22.8914 15.6667 22.3047 15.3867 21.5847 15.12C20.8647 14.8533 20.1047 14.5733 19.3047 14.28C18.5047 13.96 17.7447 13.5867 17.0247 13.16C16.3047 12.7333 15.718 12.2267 15.2647 11.64C14.8114 11.0267 14.5847 10.3067 14.5847 9.48C14.5847 8.38667 14.8514 7.30667 15.3847 6.24C15.9447 5.14667 16.6914 4.14667 17.6247 3.24C18.5847 2.33333 19.6514 1.61333 20.8247 1.08C21.998 0.519999 23.2114 0.239999 24.4647 0.239999C25.5847 0.239999 26.5447 0.399999 27.3447 0.72C28.1447 1.01333 28.718 1.29333 29.0647 1.56L27.7447 4.4C27.2914 4.18667 26.7847 3.98667 26.2247 3.8C25.6647 3.61333 25.078 3.52 24.4647 3.52C23.6914 3.52 22.9047 3.68 22.1047 4C21.3314 4.32 20.6114 4.74667 19.9447 5.28C19.3047 5.81333 18.7847 6.4 18.3847 7.04C17.9847 7.68 17.7847 8.32 17.7847 8.96C17.7847 9.41333 18.0114 9.82667 18.4647 10.2C18.9447 10.5733 19.558 10.92 20.3047 11.24C21.0514 11.56 21.838 11.8933 22.6647 12.24C23.518 12.56 24.318 12.92 25.0647 13.32C25.8114 13.6933 26.4114 14.1333 26.8647 14.64C27.3447 15.1467 27.5847 15.7467 27.5847 16.44C27.5847 17.4267 27.2514 18.4933 26.5847 19.64C25.918 20.7867 24.9314 21.8533 23.6247 22.84C22.318 23.8533 20.718 24.68 18.8247 25.32C16.958 25.96 14.798 26.28 12.3447 26.28C10.6647 26.28 9.10469 26.0933 7.66469 25.72C6.25135 25.3467 4.99802 24.7733 3.90469 24C2.83802 23.2533 1.99802 22.2933 1.38469 21.12C0.798021 19.9733 0.504688 18.6133 0.504688 17.04ZM16.4247 33.84C15.8647 33.84 15.3847 33.64 14.9847 33.24C14.6114 32.8667 14.4247 32.4133 14.4247 31.88C14.4247 31.3467 14.6114 30.88 14.9847 30.48C15.3847 30.08 15.8647 29.88 16.4247 29.88C16.958 29.88 17.4114 30.08 17.7847 30.48C18.1847 30.88 18.3847 31.3467 18.3847 31.88C18.3847 32.4133 18.1847 32.8667 17.7847 33.24C17.4114 33.64 16.958 33.84 16.4247 33.84ZM10.9447 33.84C10.3847 33.84 9.90469 33.64 9.50469 33.24C9.13135 32.8667 8.94469 32.4133 8.94469 31.88C8.94469 31.3467 9.13135 30.88 9.50469 30.48C9.90469 30.08 10.3847 29.88 10.9447 29.88C11.478 29.88 11.9314 30.08 12.3047 30.48C12.7047 30.88 12.9047 31.3467 12.9047 31.88C12.9047 32.4133 12.7047 32.8667 12.3047 33.24C11.9314 33.64 11.478 33.84 10.9447 33.84Z" fill="white"/>
</svg>
