<svg width="37" height="36" viewBox="0 0 37 36" fill="none" xmlns="http://www.w3.org/2000/svg">
<path d="M8 32.9992H29C29.7956 32.9992 30.5587 32.6832 31.1213 32.1206C31.6839 31.5579 32 30.7949 32 29.9992V16.4992C32.0011 16.3018 31.9633 16.1061 31.8887 15.9234C31.814 15.7406 31.704 15.5744 31.565 15.4342L19.565 3.43424C19.284 3.15486 18.9038 2.99805 18.5075 2.99805C18.1112 2.99805 17.731 3.15486 17.45 3.43424L5.45 15.4342C5.30827 15.5732 5.19551 15.7388 5.11827 15.9216C5.04102 16.1045 5.00082 16.3008 5 16.4992V29.9992C5 30.7949 5.31607 31.5579 5.87868 32.1206C6.44129 32.6832 7.20435 32.9992 8 32.9992ZM15.5 29.9992V22.4992H21.5V29.9992H15.5ZM8 17.1142L18.5 6.61424L29 17.1142V29.9992H24.5V22.4992C24.5 21.7036 24.1839 20.9405 23.6213 20.3779C23.0587 19.8153 22.2956 19.4992 21.5 19.4992H15.5C14.7044 19.4992 13.9413 19.8153 13.3787 20.3779C12.8161 20.9405 12.5 21.7036 12.5 22.4992V29.9992H8V17.1142Z" fill="#8E8E93"/>
</svg>
