<svg width="38" height="22" viewBox="0 0 38 22" fill="none" xmlns="http://www.w3.org/2000/svg">
<path d="M13.8788 20.4995C14.8349 20.4995 15.648 20.4002 16.318 20.2017C16.988 20.0032 17.5866 19.7551 18.1136 19.4573C18.6406 19.1596 19.1694 18.8618 19.7001 18.5641C20.2309 18.2663 20.8276 18.0164 21.4901 17.8143C22.1526 17.6121 22.9619 17.511 23.918 17.511C24.9795 17.511 25.8528 17.4246 26.5379 17.2518C27.223 17.079 27.7971 16.864 28.2601 16.6067C28.7231 16.3494 29.1541 16.0921 29.553 15.8347C29.9521 15.5774 30.3906 15.3624 30.8686 15.1896C31.3468 15.0169 31.9472 14.9306 32.6699 14.9306C33.6862 14.9306 34.5953 14.8166 35.3971 14.5886C36.1989 14.3608 36.8331 14.0171 37.2999 13.5575C37.7666 13.0981 38 12.5265 38 11.8428C38 10.3798 37.7422 9.14839 37.2265 8.14856C36.7108 7.14873 36.0313 6.39334 35.1882 5.88239C34.3449 5.37145 33.4265 5.11598 32.4327 5.11598C31.4013 5.11598 30.5262 5.30896 29.8072 5.69493C29.0882 6.08089 28.5048 6.6047 28.0568 7.26636C27.6088 7.92801 27.2757 8.67421 27.0573 9.50495C26.8692 10.1813 26.6094 10.7382 26.2782 11.1756C25.9469 11.613 25.5328 11.9531 25.036 12.1957L24.3246 10.9165C23.3308 9.12267 22.3333 7.6707 21.332 6.56059C20.3307 5.45048 19.2428 4.63811 18.0684 4.12349C16.894 3.60887 15.5501 3.35156 14.0369 3.35156C12.8097 3.35156 11.7125 3.4986 10.745 3.79267C9.77762 4.08674 8.87608 4.57011 8.04042 5.24279C7.20476 5.91547 6.38228 6.81974 5.57297 7.95558C4.76365 9.09142 3.89975 10.5048 2.98127 12.1957C2.71025 12.7103 2.40347 13.1404 2.06093 13.486C1.71838 13.8314 1.39089 14.1328 1.07846 14.3901C0.766024 14.6474 0.508173 14.8993 0.304904 15.1456C0.101635 15.3918 0 15.6767 0 16.0002C0 16.456 0.178801 16.8218 0.536404 17.0974C0.894007 17.3731 1.43041 17.511 2.14562 17.511C2.36394 17.511 2.59544 17.511 2.84012 17.511C3.0848 17.511 3.33136 17.511 3.57979 17.511C4.62625 17.511 5.52779 17.6121 6.2844 17.8143C7.04102 18.0164 7.71482 18.2663 8.30581 18.5641C8.89679 18.8618 9.46519 19.1596 10.011 19.4573C10.5568 19.7551 11.1365 20.0032 11.75 20.2017C12.3636 20.4002 13.0732 20.4995 13.8788 20.4995ZM13.8788 18.7461C13.1561 18.7461 12.5161 18.645 11.959 18.4428C11.4019 18.2407 10.8636 17.9907 10.3441 17.6929C9.82467 17.3951 9.27321 17.0956 8.68976 16.7941C8.1063 16.4928 7.43626 16.241 6.67965 16.0388C5.92304 15.8366 5.01773 15.7355 3.96374 15.7355C3.67014 15.7355 3.38029 15.7373 3.09421 15.741C2.80813 15.7447 2.53334 15.7576 2.26984 15.7796L2.1795 15.6253C2.43547 15.4121 2.70649 15.1768 2.99257 14.9195C3.27865 14.6622 3.55909 14.3681 3.83388 14.0372C4.10868 13.7065 4.36276 13.3205 4.59614 12.8793C5.3791 11.3943 6.11689 10.1537 6.80951 9.15758C7.50214 8.16143 8.20417 7.3656 8.91561 6.77011C9.62705 6.17462 10.395 5.74822 11.2193 5.49091C12.0437 5.2336 12.9829 5.10494 14.0369 5.10494C15.1887 5.10494 16.1994 5.28138 17.0689 5.63427C17.9385 5.98715 18.7083 6.4742 19.3783 7.09543C20.0484 7.71665 20.6639 8.43528 21.2247 9.25132C21.7855 10.0674 22.3332 10.9385 22.8678 11.8648C23.1313 12.3207 23.4136 12.7838 23.7147 13.2544C24.0158 13.7249 24.3301 14.1752 24.6576 14.6052C24.9851 15.0353 25.3145 15.4121 25.6457 15.7355C25.4124 15.7355 25.1658 15.7355 24.9061 15.7355C24.6464 15.7355 24.381 15.7355 24.11 15.7355C23.0409 15.7355 22.1262 15.8366 21.3659 16.0388C20.6055 16.241 19.9297 16.4928 19.3388 16.7941C18.7478 17.0956 18.185 17.3951 17.6506 17.6929C17.116 17.9907 16.5514 18.2407 15.9566 18.4428C15.3618 18.645 14.6692 18.7461 13.8788 18.7461ZM27.4752 15.2504C27.2192 15.0592 26.9538 14.8001 26.6791 14.4729C26.4043 14.1457 26.1803 13.8278 26.0071 13.519C26.4137 13.3719 26.777 13.1716 27.0969 12.918C27.4169 12.6643 27.6973 12.3335 27.9383 11.9255C28.1792 11.5175 28.3824 11.001 28.548 10.3761C28.7287 9.6189 28.9884 8.97195 29.3272 8.43527C29.666 7.8986 30.0914 7.48874 30.6032 7.20571C31.1152 6.92266 31.725 6.78114 32.4327 6.78114C33.1479 6.78114 33.8048 6.98331 34.4033 7.38766C35.0018 7.792 35.4798 8.35441 35.8375 9.07488C36.1951 9.79535 36.3739 10.6298 36.3739 11.5781C36.3739 11.9311 36.2121 12.238 35.8883 12.4989C35.5646 12.7599 35.1467 12.9621 34.6348 13.1054C34.1229 13.2488 33.5808 13.3205 33.0086 13.3205C32.301 13.3205 31.6818 13.3775 31.151 13.4914C30.6202 13.6054 30.1459 13.7579 29.7281 13.9491C29.3103 14.1402 28.9207 14.3479 28.5594 14.5722C28.1979 14.7963 27.8366 15.0224 27.4752 15.2504ZM32.8619 10.8724C33.1404 10.8724 33.3794 10.775 33.5789 10.5801C33.7785 10.3853 33.8782 10.1519 33.8782 9.87989C33.8782 9.60788 33.7785 9.37446 33.5789 9.17964C33.3794 8.98481 33.1404 8.8874 32.8619 8.8874C32.5833 8.8874 32.3424 8.98481 32.1391 9.17964C31.9359 9.37446 31.8342 9.60788 31.8342 9.87989C31.8342 10.1519 31.9359 10.3853 32.1391 10.5801C32.3424 10.775 32.5833 10.8724 32.8619 10.8724ZM13.9014 12.2288C15.1511 12.2288 16.2954 12.0689 17.3343 11.7491C18.3733 11.4293 19.3068 11.0102 20.1349 10.4919C20.963 9.97363 21.6858 9.41674 22.3031 8.82124L21.4675 7.63026C20.4662 8.63745 19.3294 9.41857 18.057 9.97363C16.7847 10.5287 15.3995 10.8062 13.9014 10.8062C12.4032 10.8062 11.0217 10.5324 9.75692 9.98465C8.49214 9.43694 7.36286 8.65215 6.3691 7.63026L5.54473 8.8433C6.12443 9.41673 6.82081 9.96076 7.63388 10.4754C8.44696 10.99 9.37485 11.4109 10.4175 11.738C11.4602 12.0652 12.6215 12.2288 13.9014 12.2288ZM8.58248 17.6984C8.92878 17.3235 9.25063 16.8916 9.54801 16.4027C9.84538 15.9139 10.1108 15.4011 10.3441 14.8644C10.5775 14.3277 10.7695 13.7892 10.9201 13.2488C11.0706 12.7084 11.1723 12.1957 11.225 11.7105L9.99407 11.3025C9.95642 11.7215 9.86043 12.1938 9.70609 12.7194C9.55176 13.2451 9.35414 13.7782 9.11323 14.3185C8.87232 14.8588 8.59941 15.3698 8.29451 15.8513C7.9896 16.3328 7.66399 16.7501 7.31768 17.103L8.58248 17.6984ZM19.4009 17.6764L20.6996 17.0919C20.3382 16.7317 20.0031 16.3108 19.6945 15.8293C19.3859 15.3477 19.1148 14.8423 18.8814 14.313C18.6481 13.7837 18.458 13.2599 18.3112 12.7416C18.1643 12.2233 18.0721 11.7436 18.0345 11.3025L16.781 11.6443C16.8111 12.1442 16.8977 12.6699 17.0407 13.2213C17.1838 13.7726 17.372 14.3185 17.6054 14.8589C17.8387 15.3992 18.1079 15.912 18.4128 16.3972C18.7177 16.8824 19.0471 17.3088 19.4009 17.6764ZM3.32006 21.9772C4.08044 21.9772 4.8427 21.865 5.60684 21.6408C6.37098 21.4166 7.10877 21.0839 7.82022 20.6428C8.53166 20.2017 9.19228 19.6577 9.80208 19.0107L8.3792 18.1175C7.75434 18.6688 7.15206 19.1191 6.57236 19.4684C5.99267 19.8176 5.43368 20.0767 4.8954 20.2458C4.35711 20.4149 3.83953 20.4995 3.34264 20.4995C2.84576 20.4995 2.47122 20.4259 2.21903 20.2789C1.96682 20.1319 1.84072 19.926 1.84072 19.6613C1.84072 19.4628 1.92541 19.2937 2.0948 19.1541C2.26419 19.0144 2.56722 18.8931 3.00387 18.7901C3.16196 18.746 3.38781 18.6799 3.68143 18.5916C3.97504 18.5035 4.29688 18.3987 4.64695 18.2774C4.99703 18.1561 5.33958 18.0256 5.6746 17.8859C6.00962 17.7462 6.29758 17.6066 6.53849 17.4669L5.14948 16.9375C4.66013 17.1507 4.12561 17.3217 3.54592 17.4503C2.96622 17.579 2.42041 17.7352 1.90847 17.919C1.55463 18.044 1.24597 18.1911 0.982467 18.3601C0.71897 18.5292 0.515701 18.7387 0.37266 18.9887C0.229619 19.2386 0.158098 19.54 0.158098 19.893C0.158098 20.5693 0.46112 21.0857 1.06716 21.4424C1.6732 21.7989 2.42417 21.9772 3.32006 21.9772ZM24.381 21.9992C25.2769 21.9992 26.0279 21.8209 26.6339 21.4644C27.24 21.1078 27.543 20.5951 27.543 19.926C27.543 19.4996 27.4433 19.1486 27.2437 18.8729C27.0442 18.5972 26.7713 18.373 26.425 18.2002C26.0787 18.0275 25.6834 17.8823 25.2393 17.7646C24.78 17.647 24.317 17.5294 23.8502 17.4117C23.3835 17.2941 22.9506 17.1471 22.5516 16.9706L21.1626 17.4889C21.396 17.636 21.6801 17.7793 22.0152 17.919C22.3502 18.0587 22.6928 18.1892 23.0429 18.3105C23.3929 18.4318 23.7166 18.5366 24.014 18.6247C24.3113 18.7129 24.5391 18.7791 24.6972 18.8232C25.1263 18.9261 25.4275 19.0475 25.6006 19.1872C25.7738 19.3268 25.8604 19.4959 25.8604 19.6944C25.8604 19.9591 25.7342 20.1631 25.482 20.3065C25.2298 20.4498 24.8553 20.5215 24.3585 20.5215C23.8615 20.5215 23.3439 20.4388 22.8057 20.2734C22.2674 20.108 21.7084 19.8507 21.1287 19.5014C20.549 19.1522 19.9467 18.7019 19.3219 18.1506L17.8877 19.0438C18.4824 19.6761 19.1355 20.2127 19.847 20.6538C20.5584 21.095 21.2999 21.4295 22.0716 21.6574C22.8433 21.8852 23.6131 21.9992 24.381 21.9992Z" fill="white"/>
</svg>
