<svg width="31" height="30" viewBox="0 0 31 30" fill="none" xmlns="http://www.w3.org/2000/svg">
<path d="M29 3H24.5V1.5C24.5 1.10218 24.342 0.720644 24.0607 0.43934C23.7794 0.158035 23.3978 0 23 0H8C7.60218 0 7.22064 0.158035 6.93934 0.43934C6.65804 0.720644 6.5 1.10218 6.5 1.5V3H2C1.60218 3 1.22064 3.15804 0.93934 3.43934C0.658035 3.72064 0.5 4.10218 0.5 4.5V9C0.5 15.465 3.1985 19.365 7.7285 19.518C8.39166 20.6577 9.29712 21.6378 10.3808 22.3889C11.4646 23.1401 12.7001 23.644 14 23.865V27H11V30H20V27H17V23.865C18.2996 23.6431 19.5348 23.1389 20.6184 22.3878C21.702 21.6367 22.6076 20.6571 23.2715 19.518C27.8015 19.365 30.5 15.465 30.5 9V4.5C30.5 4.10218 30.342 3.72064 30.0607 3.43934C29.7794 3.15804 29.3978 3 29 3ZM3.5 9V6H6.5V16.245C3.824 15.117 3.5 10.9485 3.5 9ZM15.5 21C12.191 21 9.5 18.309 9.5 15V3H21.5V15C21.5 18.309 18.809 21 15.5 21ZM24.5 16.245V6H27.5V9C27.5 10.9485 27.176 15.117 24.5 16.245Z" fill="#8E8E93"/>
</svg>
