<svg width="27" height="29" viewBox="0 0 27 29" fill="none" xmlns="http://www.w3.org/2000/svg">
<path d="M13.5 0C12.0166 0 10.5666 0.439867 9.33322 1.26398C8.09985 2.08809 7.13856 3.25943 6.5709 4.62987C6.00325 6.00032 5.85472 7.50832 6.14411 8.96318C6.4335 10.418 7.14781 11.7544 8.1967 12.8033C9.24559 13.8522 10.582 14.5665 12.0368 14.8559C13.4917 15.1453 14.9997 14.9968 16.3701 14.4291C17.7406 13.8614 18.9119 12.9001 19.736 11.6668C20.5601 10.4334 21 8.98336 21 7.5C21 5.51088 20.2098 3.60322 18.8033 2.1967C17.3968 0.790176 15.4891 0 13.5 0ZM13.5 12C12.61 12 11.74 11.7361 10.9999 11.2416C10.2599 10.7471 9.68314 10.0443 9.34254 9.22208C9.00195 8.39981 8.91283 7.49501 9.08647 6.62209C9.2601 5.74918 9.68868 4.94736 10.318 4.31802C10.9474 3.68868 11.7492 3.2601 12.6221 3.08647C13.495 2.91283 14.3998 3.00195 15.2221 3.34254C16.0443 3.68314 16.7471 4.25991 17.2416 4.99993C17.7361 5.73995 18 6.60998 18 7.5C18 8.69347 17.5259 9.83807 16.682 10.682C15.8381 11.5259 14.6935 12 13.5 12ZM27 28.5V27C27 24.2152 25.8938 21.5445 23.9246 19.5754C21.9555 17.6062 19.2848 16.5 16.5 16.5H10.5C7.71523 16.5 5.04451 17.6062 3.07538 19.5754C1.10625 21.5445 0 24.2152 0 27V28.5H3V27C3 25.0109 3.79018 23.1032 5.1967 21.6967C6.60322 20.2902 8.51088 19.5 10.5 19.5H16.5C18.4891 19.5 20.3968 20.2902 21.8033 21.6967C23.2098 23.1032 24 25.0109 24 27V28.5H27Z" fill="#8E8E93"/>
</svg>
