<svg width="39" height="30" viewBox="0 0 39 30" fill="none" xmlns="http://www.w3.org/2000/svg">
<path d="M4.97459 5.17502C5.08622 4.38032 5.21259 3.5699 5.31159 2.75751C5.48325 1.34394 6.65116 0.661224 8.07708 1.16516C11.7188 2.45397 15.3604 3.74573 18.9979 5.04633C19.3002 5.15439 19.5561 5.16028 19.8604 5.05125C23.5095 3.74475 27.1628 2.4471 30.8171 1.15337C32.1356 0.686765 33.3246 1.33215 33.5267 2.61802C33.5899 3.01783 33.6394 3.4196 33.6942 3.82039C33.7563 4.26931 33.8174 4.71824 33.8848 5.2094C34.0249 5.2153 34.1639 5.22708 34.3029 5.22708C34.999 5.22905 35.6962 5.22119 36.3923 5.23003C37.5486 5.24477 38.3511 5.99134 38.3532 7.066C38.3585 10.0808 38.3574 13.0955 38.3542 16.1103C38.3532 16.963 37.9225 17.5563 37.0715 17.8677C35.3866 18.4856 33.6984 19.0936 32.0113 19.7066C31.8776 19.7547 31.7459 19.8078 31.5753 19.8726C31.9302 20.6575 32.2788 21.4306 32.6295 22.2017C33.2593 23.5878 33.8838 24.9748 34.523 26.357C34.879 27.1271 34.8474 27.8491 34.205 28.465C33.5594 29.0839 32.7822 29.1163 31.9502 28.8138C27.8926 27.3383 23.8349 25.8648 19.7709 24.4041C19.5771 24.3343 19.3054 24.3304 19.1138 24.4002C15.0129 25.8707 10.9184 27.3589 6.81965 28.8373C5.637 29.2637 4.50069 28.7686 4.17843 27.7047C4.04047 27.2479 4.12472 26.8128 4.32166 26.3815C5.26841 24.3108 6.20885 22.2371 7.15033 20.1644C7.19035 20.075 7.22932 19.9846 7.28197 19.8628C6.32048 19.5141 5.36951 19.1683 4.41854 18.8225C3.55077 18.5072 2.68195 18.1948 1.81523 17.8755C0.923242 17.5474 0.503047 16.9708 0.501994 16.0651C0.499888 13.0749 0.498835 10.0847 0.501994 7.09351C0.503047 5.97562 1.30236 5.23789 2.51029 5.22708C3.29802 5.22021 4.08681 5.21923 4.87454 5.21431C4.89877 5.21726 4.92193 5.1986 4.97459 5.17502ZM18.7704 19.0818C18.7852 18.9846 18.7957 18.9482 18.7957 18.9119C18.7968 14.7694 18.7936 10.6269 18.8052 6.48446C18.8063 6.232 18.6609 6.17896 18.4735 6.11216C14.856 4.83022 11.2406 3.54534 7.62213 2.26438C6.99131 2.04139 6.65537 2.24768 6.57006 2.8803C6.43 3.91273 6.2794 4.94417 6.13407 5.9766C5.78233 8.49038 5.42638 11.0032 5.08201 13.5169C4.98933 14.1928 5.07253 14.2979 5.73705 14.5307C9.17548 15.7321 12.6139 16.9345 16.0534 18.1368C16.9464 18.4482 17.8405 18.7586 18.7704 19.0818ZM20.0595 19.075C20.2248 19.0278 20.3491 18.9993 20.4681 18.9581C24.6553 17.4934 28.8425 16.0278 33.0286 14.5612C33.8174 14.2851 33.8753 14.1781 33.7626 13.3863C33.2708 9.91377 32.7822 6.44222 32.2946 2.96969C32.1851 2.19071 31.8891 2.02568 31.1004 2.30662C27.5461 3.57088 23.9939 4.83906 20.4344 6.09055C20.1332 6.19664 20.051 6.32729 20.051 6.6161C20.0616 10.6358 20.0584 14.6564 20.0584 18.6761C20.0595 18.796 20.0595 18.9148 20.0595 19.075ZM4.79767 6.40588C4.05627 6.40588 3.36332 6.4049 2.67037 6.40588C1.95214 6.40686 1.76363 6.58368 1.76363 7.25756C1.76363 10.1505 1.76363 13.0425 1.76363 15.9354C1.76363 16.5268 1.8363 16.626 2.41341 16.8353C7.98862 18.8569 13.5628 20.8795 19.1422 22.8913C19.3139 22.9532 19.5571 22.9512 19.7288 22.8893C25.3208 20.8736 30.9087 18.848 36.4965 16.8225C36.9936 16.6427 37.0926 16.5032 37.0926 15.9944C37.0937 14.4374 37.0926 12.8814 37.0926 11.3244C37.0926 9.92752 37.0895 8.52967 37.0947 7.1328C37.0958 6.78702 36.9778 6.4658 36.5998 6.44419C35.7688 6.39704 34.9337 6.42945 34.0712 6.42945C34.0954 6.64655 34.1123 6.82828 34.1365 7.00804C34.4419 9.21828 34.76 11.4275 35.0506 13.6397C35.1696 14.5415 34.7168 15.2213 33.8016 15.5425C29.1363 17.182 24.4668 18.8146 19.7941 20.4355C19.5824 20.5092 19.2896 20.5111 19.079 20.4374C14.4063 18.8186 9.73785 17.1869 5.07148 15.5523C4.14263 15.2272 3.68557 14.5474 3.80457 13.624C4.01731 11.9708 4.25952 10.3205 4.48805 8.66818C4.59125 7.93143 4.69025 7.19272 4.79767 6.40588ZM8.47621 20.298C8.40986 20.4335 8.3551 20.5416 8.30455 20.6526C7.68321 22.0151 7.06293 23.3766 6.44264 24.7391C6.1246 25.4375 5.80971 26.1359 5.48851 26.8334C5.35792 27.1153 5.2663 27.3972 5.52642 27.6546C5.78444 27.911 6.08984 27.8658 6.3963 27.7332C6.41947 27.7234 6.44685 27.7185 6.47107 27.7096C9.2334 26.7086 11.9957 25.7076 14.7581 24.7057C15.709 24.3609 16.6589 24.0141 17.6889 23.6398C14.5717 22.5102 11.5345 21.408 8.47621 20.298ZM30.3916 20.297C27.3144 21.4139 24.2867 22.5131 21.2074 23.631C21.3232 23.687 21.3685 23.7145 21.4159 23.7312C25.0923 25.0642 28.7698 26.3953 32.4462 27.7302C32.758 27.8432 33.0581 27.9081 33.3214 27.6566C33.5857 27.4031 33.5025 27.1212 33.3719 26.8383C32.7801 25.5456 32.1903 24.2518 31.6006 22.9581C31.2015 22.0819 30.8044 21.2056 30.3916 20.297Z" fill="#8E8E93" stroke="#8E8E93"/>
</svg>
