<svg width="28" height="22" viewBox="0 0 28 22" fill="none" xmlns="http://www.w3.org/2000/svg">
<path d="M2.55914 16.0661H6.14695C6.26404 16.0661 6.36439 16.1035 6.44802 16.1783L12.1057 21.214C12.4068 21.4799 12.6849 21.6773 12.9399 21.8061C13.195 21.9349 13.4731 21.9993 13.7742 21.9993C14.184 21.9993 14.5227 21.8663 14.7903 21.6004C15.058 21.3345 15.1918 21.0021 15.1918 20.6033V1.48254C15.1918 1.07537 15.0559 0.728434 14.784 0.441748C14.5122 0.155062 14.1672 0.0117188 13.7491 0.0117188C13.448 0.0117188 13.1825 0.0823514 12.9525 0.223617C12.7225 0.364883 12.4402 0.580936 12.1057 0.871777L6.44802 5.85762C6.37275 5.9324 6.2724 5.9698 6.14695 5.9698H2.55914C1.70609 5.9698 1.06631 6.18793 0.639784 6.62419C0.213261 7.06045 0 7.73146 0 8.63723V13.4112C0 14.3086 0.213261 14.9755 0.639784 15.4117C1.06631 15.848 1.70609 16.0661 2.55914 16.0661ZM2.64695 14.2463C2.41278 14.2463 2.23924 14.1923 2.12634 14.0843C2.01344 13.9763 1.95699 13.8059 1.95699 13.5733V8.47518C1.95699 8.24252 2.01344 8.07009 2.12634 7.95791C2.23924 7.84573 2.41278 7.78964 2.64695 7.78964H6.66129C6.82018 7.78964 6.96653 7.76887 7.10035 7.72731C7.23416 7.68576 7.37215 7.59851 7.51433 7.46556L12.8585 2.64175C12.8919 2.60851 12.9253 2.58358 12.9588 2.56697C12.9923 2.55035 13.0299 2.54204 13.0717 2.54204C13.1804 2.54204 13.2347 2.60021 13.2347 2.71654V19.282C13.2347 19.4066 13.1804 19.469 13.0717 19.469C13.0048 19.469 12.9379 19.4357 12.8709 19.3693L7.51433 14.5704C7.37215 14.4457 7.23416 14.3605 7.10035 14.3148C6.96653 14.2691 6.82018 14.2463 6.66129 14.2463H2.64695ZM19.4193 16.3029C19.6368 16.4443 19.8751 16.492 20.1343 16.4463C20.3937 16.4006 20.6069 16.2572 20.7742 16.0162C21.2593 15.3847 21.6377 14.6285 21.9095 13.7477C22.1813 12.8669 22.3171 11.9487 22.3171 10.993C22.3171 10.0374 22.1813 9.11919 21.9095 8.23836C21.6377 7.35753 21.2593 6.60134 20.7742 5.9698C20.6069 5.72882 20.3937 5.5834 20.1343 5.53354C19.8751 5.48368 19.6368 5.53354 19.4193 5.68311C19.1684 5.85762 19.0242 6.08406 18.9866 6.36244C18.9489 6.64081 19.0304 6.9088 19.2312 7.1664C19.5991 7.66499 19.8814 8.24667 20.078 8.91145C20.2745 9.57623 20.3728 10.2701 20.3728 10.993C20.3728 11.716 20.2724 12.4078 20.0717 13.0685C19.8709 13.729 19.5908 14.3127 19.2312 14.8196C19.0388 15.0856 18.9594 15.3556 18.9929 15.6299C19.0263 15.9041 19.1684 16.1285 19.4193 16.3029ZM24.0734 19.5563C24.3076 19.7058 24.5544 19.7577 24.8136 19.712C25.0728 19.6663 25.2861 19.523 25.4534 19.282C26.2563 18.1851 26.8814 16.9137 27.3288 15.4678C27.7763 14.0219 28 12.5303 28 10.993C28 9.45574 27.7784 7.95999 27.3351 6.50578C26.8918 5.05158 26.2646 3.78434 25.4534 2.70407C25.2861 2.46309 25.0728 2.31767 24.8136 2.26781C24.5544 2.21795 24.3076 2.27197 24.0734 2.42986C23.8477 2.58774 23.7159 2.79756 23.6783 3.05931C23.6407 3.32107 23.7139 3.58075 23.8978 3.83835C24.5836 4.80228 25.1147 5.90332 25.4911 7.14147C25.8674 8.37962 26.0555 9.66348 26.0555 10.993C26.0555 12.3226 25.8653 13.6044 25.4848 14.8384C25.1042 16.0724 24.5752 17.1755 23.8978 18.1478C23.7222 18.4054 23.6511 18.665 23.6846 18.9268C23.718 19.1885 23.8477 19.3983 24.0734 19.5563Z" fill="white"/>
</svg>
